<?xml version="1.0" encoding="utf-8"?>
<!-- Generator: Adobe Illustrator 23.0.1, SVG Export Plug-In . SVG Version: 6.00 Build 0)  -->
<svg version="1.1" id="Layer_1" xmlns="http://www.w3.org/2000/svg" xmlns:xlink="http://www.w3.org/1999/xlink" x="0px" y="0px"
	 viewBox="0 0 595.3 841.9" style="enable-background:new 0 0 595.3 841.9;" fill="#FFFFFF" xml:space="preserve">
<g>
	<path d="M370.6,413.5c-25.1,0-48.7-5.9-70.9-17.5c-20.9-11-43.1-15.6-66.6-13.9c-15.5,1.1-30.2,5.3-44,12.4
		c-2.7,1.4-3.8,0.8-5.1-1.8c-3.7-7.6-7.6-15.2-11.6-22.7c-1.3-2.5-0.7-3.7,1.7-4.9c18.6-9.1,38.1-14.5,58.9-15.9
		c29.5-2,56.9,4.6,83,18.3c19.1,10,39.6,14.3,61.1,13.2c16.2-0.8,31.8-4.9,46.4-12.1c4.3-2.1,4.3-2.1,6.5,2.3
		c3.7,7.2,7.3,14.5,11,21.7c1.2,2.2,1,3.5-1.5,4.6c-17,8.2-34.8,13.6-53.7,15.6C380.8,413.4,375.7,413.5,370.6,413.5z"/>
	<path d="M242.7,221c24.8-0.2,48.3,5.5,70.2,17.1c20.9,11,43,15.9,66.4,14.4c15.8-1,30.7-5.2,44.8-12.3c2.8-1.4,4.1-1,5.4,1.7
		c3.7,7.6,7.5,15.2,11.5,22.7c1.2,2.3,0.8,3.5-1.6,4.6c-19,9.1-38.9,14.7-60,16c-28.7,1.8-55.5-4.7-80.9-17.8
		c-19.6-10.1-40.3-14.8-62.2-13.7c-16.5,0.8-32.3,4.9-47.1,12.5c-2.9,1.5-4.3,1.2-5.7-1.9c-3.6-7.6-7.4-15-11.3-22.4
		c-1.3-2.5-0.9-3.7,1.6-4.9c16.6-8.2,34.1-13.5,52.5-15.5C232,221.1,237.4,221.1,242.7,221z"/>
</g>
</svg>
