<svg width="17" height="16" viewBox="0 0 17 16" fill="none" xmlns="http://www.w3.org/2000/svg">
<path d="M4.98509 15.5701C4.64712 15.5701 4.29225 15.5701 3.95427 15.5701C3.93738 15.5701 3.92048 15.5546 3.88668 15.5546C2.4841 15.3689 1.40258 14.7343 0.642147 13.6354C0.287276 13.1247 0.101392 12.552 0 11.9484C0 11.6234 0 11.2984 0 10.9733C0 10.9424 0.0168986 10.9114 0.0168986 10.865C0.168986 10.0138 0.557654 9.25537 1.2167 8.62081C2.11233 7.78504 3.04175 6.94927 3.95427 6.1135C4.39364 5.71109 4.9006 5.41703 5.47515 5.21582C5.59344 5.16939 5.66103 5.12296 5.69483 5.01462C5.91451 4.47292 6.23559 4.0086 6.67495 3.60619C7.57058 2.77042 8.4831 1.95013 9.37873 1.12984C9.6998 0.83577 10.0547 0.619089 10.4602 0.433362C10.9334 0.216681 11.4404 0.0773861 11.9811 0C12.336 0 12.6909 0 13.0457 0C13.0795 0 13.0964 0.0154772 13.1302 0.0154772C14.668 0.232158 15.8171 0.975064 16.5437 2.22872C16.7972 2.66208 16.9155 3.1264 17 3.60619C17 3.91574 17 4.24076 17 4.5503C17 4.58126 16.9831 4.61221 16.9831 4.64316C16.8479 5.55632 16.4254 6.34566 15.7157 6.9957C14.837 7.80052 13.9583 8.60533 13.0795 9.41015C12.6233 9.82803 12.0994 10.1376 11.508 10.3388C11.4066 10.3697 11.339 10.4316 11.2883 10.5245C11.0686 11.0817 10.7137 11.577 10.2406 11.9948C9.39563 12.8151 8.5338 13.6045 7.67197 14.3938C7.40159 14.6414 7.11431 14.8426 6.79324 15.0129C6.23559 15.3224 5.62724 15.4927 4.98509 15.5701ZM10.5616 8.96131C10.5109 7.83147 9.91948 6.88736 8.71968 6.26827C8.5 6.14445 8.4662 6.17541 8.4493 6.40757C8.43241 6.84093 8.60139 7.1969 8.92247 7.50645C9.83499 8.38865 9.83499 9.79708 8.90557 10.6793C8.00994 11.515 7.13121 12.3353 6.21869 13.1402C5.57654 13.7128 4.7992 13.8985 3.93738 13.7128C2.99105 13.5116 2.34891 12.9699 2.07853 12.1187C1.80815 11.2674 2.02783 10.4936 2.70378 9.85899C3.5825 9.03869 4.47813 8.2184 5.37376 7.39811C5.45825 7.32072 5.49205 7.25881 5.47515 7.16595C5.42445 6.93379 5.40755 6.68616 5.40755 6.43852C5.40755 6.33018 5.37376 6.33018 5.27237 6.37661C5.05268 6.50043 4.8499 6.63972 4.66402 6.80997C3.75149 7.63027 2.83897 8.45056 1.96024 9.30181C1.13221 10.0911 0.84493 11.0507 1.08151 12.1032C1.35189 13.3104 2.14612 14.1307 3.43042 14.5021C4.71471 14.8581 5.89761 14.6105 6.87773 13.7592C7.79026 12.9544 8.66899 12.1341 9.56461 11.3138C10.2237 10.6948 10.5447 9.95185 10.5616 8.96131ZM6.43837 6.62425C6.48907 7.75408 7.09742 8.69819 8.29722 9.31728C8.5 9.42562 8.5338 9.39467 8.5507 9.17799C8.58449 8.74463 8.39861 8.38865 8.06064 8.06363C7.14811 7.1969 7.14811 5.773 8.06064 4.92175C8.95626 4.08598 9.86879 3.25022 10.7813 2.42992C11.3559 1.91917 12.0487 1.73345 12.826 1.82631C13.8231 1.95013 14.5328 2.46088 14.8539 3.34308C15.175 4.24076 14.9891 5.04557 14.2624 5.72657C13.3837 6.54686 12.4881 7.36715 11.5924 8.17197C11.5249 8.23388 11.4911 8.31126 11.508 8.40413C11.5586 8.65176 11.5755 8.88392 11.5755 9.13156C11.5755 9.25537 11.6262 9.2399 11.7107 9.19347C11.9135 9.06965 12.0994 8.94583 12.2684 8.79106C13.1809 7.95529 14.1103 7.135 15.006 6.26827C15.8171 5.47893 16.1044 4.51935 15.8678 3.4669C15.6481 2.27515 14.8539 1.45486 13.5865 1.08341C12.2853 0.711952 11.1024 0.959587 10.1223 1.82631C9.19284 2.63113 8.31412 3.4669 7.41849 4.28719C6.77634 4.90628 6.45527 5.64918 6.43837 6.62425ZM12.505 2.75494C12.0994 2.75494 11.7614 2.89424 11.4066 3.20378C10.663 3.88478 9.93638 4.56578 9.19284 5.2313C9.09145 5.32416 9.09145 5.37059 9.22664 5.4325C10.0209 5.81943 10.6292 6.39209 11.0686 7.11952C11.1362 7.24334 11.1869 7.22786 11.2883 7.15047C12.0149 6.46948 12.7585 5.80396 13.4851 5.12296C13.5527 5.06105 13.6034 4.99914 13.671 4.93723C14.0427 4.48839 14.1103 4.0086 13.84 3.49785C13.5696 3.01806 13.1133 2.77042 12.505 2.75494ZM4.42744 12.8151C4.8837 12.8151 5.23857 12.6758 5.52585 12.4127C6.30318 11.7163 7.06362 11.0043 7.82406 10.3078C7.90855 10.2304 7.90855 10.1995 7.80716 10.1376C6.99602 9.73517 6.35388 9.16251 5.93141 8.40413C5.86382 8.28031 5.81312 8.32674 5.72863 8.38865C5.15408 8.93035 4.56262 9.45658 3.98807 9.99828C3.78529 10.184 3.56561 10.3697 3.37972 10.5709C2.97416 11.0043 2.88966 11.4996 3.14314 12.0103C3.39662 12.552 3.86978 12.7997 4.42744 12.8151Z" fill="#394754"/>
<path d="M16.7127 9.68884C16.7127 9.98291 16.4592 10.1996 16.1551 10.1532C15.7664 10.0912 15.3946 9.99839 15.0397 9.87457C14.7863 9.79718 14.668 9.51859 14.7694 9.28644C14.8539 9.06975 15.1073 8.91498 15.3608 8.97689C15.6988 9.05428 16.0199 9.13166 16.3578 9.22453C16.5944 9.28643 16.7127 9.45668 16.7127 9.68884Z" fill="#394754"/>
<path d="M10.3082 13.4961C10.5447 13.4961 10.7306 13.6044 10.7982 13.8366C10.8996 14.1307 10.9841 14.4247 11.0517 14.7188C11.1193 14.9974 10.9503 15.2605 10.6799 15.3069C10.3927 15.3688 10.1223 15.2141 10.0378 14.9355C9.9533 14.6414 9.8688 14.3628 9.78431 14.0688C9.73361 13.7592 9.97019 13.4961 10.3082 13.4961Z" fill="#394754"/>
<path d="M14.651 13.0009C14.651 13.1402 14.5666 13.2949 14.3638 13.3723C14.161 13.4652 13.9582 13.4497 13.8061 13.3104C13.5357 13.0937 13.2823 12.8461 13.0457 12.6139C12.8598 12.4282 12.8767 12.1496 13.0626 11.9794C13.2485 11.7936 13.5695 11.7782 13.7723 11.9484C14.0427 12.1651 14.2793 12.4127 14.5328 12.6449C14.6173 12.7223 14.6679 12.8306 14.651 13.0009Z" fill="#394754"/>
<path d="M6.69179 2.07387C6.47211 2.07387 6.26933 1.96553 6.20173 1.76433C6.10034 1.45479 5.99895 1.12976 5.93135 0.804743C5.86376 0.54163 6.04964 0.309472 6.30312 0.247563C6.5904 0.216609 6.86078 0.340426 6.94527 0.619016C7.04666 0.913083 7.13116 1.20715 7.19875 1.51669C7.28324 1.81076 7.02976 2.07387 6.69179 2.07387Z" fill="#394754"/>
<path d="M0.287231 5.89687C0.287231 5.6028 0.540711 5.38612 0.844886 5.43255C1.23355 5.49446 1.60532 5.58732 1.96019 5.71114C2.21367 5.78853 2.33196 6.05164 2.24747 6.29927C2.16298 6.53143 1.9095 6.67073 1.63912 6.60882C1.31805 6.53143 0.980074 6.45405 0.659001 6.37666C0.42242 6.29927 0.287231 6.11355 0.287231 5.89687Z" fill="#394754"/>
<path d="M2.34888 2.61558C2.36578 2.42985 2.45027 2.29056 2.63615 2.19769C2.83894 2.10483 3.04172 2.12031 3.19381 2.2596C3.46419 2.49176 3.71766 2.72392 3.97114 2.97155C4.15703 3.15728 4.12323 3.43587 3.93735 3.60612C3.75146 3.77637 3.44729 3.80732 3.2445 3.63707C2.97413 3.40492 2.72065 3.17276 2.46717 2.92512C2.38267 2.84774 2.34888 2.73939 2.34888 2.61558Z" fill="#394754"/>
</svg>
