<svg width="11" height="13" viewBox="0 0 11 13" fill="none" xmlns="http://www.w3.org/2000/svg">
<path d="M9.04298 7.56161e-10H3.16174C2.77062 7.56161e-10 2.39552 0.155373 2.11895 0.431939C1.84238 0.708505 1.68701 1.08361 1.68701 1.47473V9.52677C1.68701 9.91789 1.84238 10.293 2.11895 10.5696C2.39552 10.8461 2.77062 11.0015 3.16174 11.0015H9.04298C9.4341 11.0015 9.8092 10.8461 10.0858 10.5696C10.3623 10.293 10.5177 9.91789 10.5177 9.52677V1.46293C10.5146 1.07386 10.3579 0.701779 10.0816 0.427759C9.80539 0.15374 9.43206 -1.24503e-05 9.04298 7.56161e-10ZM9.63287 9.52677C9.63287 9.68322 9.57072 9.83326 9.46009 9.94389C9.34947 10.0545 9.19943 10.1167 9.04298 10.1167H3.16174C3.00529 10.1167 2.85525 10.0545 2.74463 9.94389C2.634 9.83326 2.57185 9.68322 2.57185 9.52677V1.46293C2.57185 1.30649 2.634 1.15644 2.74463 1.04582C2.85525 0.935191 3.00529 0.873042 3.16174 0.873042H9.04298C9.19943 0.873042 9.34947 0.935191 9.46009 1.04582C9.57072 1.15644 9.63287 1.30649 9.63287 1.46293V9.52677Z" fill="white"/>
<path d="M7.34122 11.7977H1.47473C1.31828 11.7977 1.16824 11.7355 1.05762 11.6249C0.946989 11.5143 0.884839 11.3642 0.884839 11.2078V3.16459C0.884839 3.04725 0.838227 2.93472 0.755257 2.85175C0.672288 2.76878 0.559757 2.72217 0.44242 2.72217C0.325083 2.72217 0.212551 2.76878 0.129582 2.85175C0.0466119 2.93472 0 3.04725 0 3.16459V11.2107C0 11.6018 0.155373 11.977 0.431939 12.2535C0.708505 12.5301 1.08361 12.6855 1.47473 12.6855H7.34122C7.45895 12.6855 7.57185 12.6387 7.6551 12.5554C7.73834 12.4722 7.78511 12.3593 7.78511 12.2416C7.78511 12.1238 7.73834 12.0109 7.6551 11.9277C7.57185 11.8444 7.45895 11.7977 7.34122 11.7977Z" fill="white"/>
</svg>
