<svg width="18" height="20" viewBox="0 0 18 20" fill="none" xmlns="http://www.w3.org/2000/svg">
<path d="M12.6102 19.0836C12.4325 18.7847 12.2503 18.4904 12.0725 18.1915C12.0148 18.0934 11.9437 18.0845 11.837 18.1157C10.8682 18.3878 9.88168 18.4859 8.8818 18.4547C7.61528 18.4145 6.38432 18.1915 5.24223 17.6117C4.6112 17.2905 4.04682 16.8846 3.59354 16.3316C3.37135 16.0595 3.35802 15.7384 3.55355 15.4975C3.79352 15.2031 4.23791 15.163 4.48677 15.4574C5.37555 16.5055 6.56652 16.9159 7.8597 17.1032C8.93068 17.2593 10.0017 17.2281 11.0682 17.014C11.3082 16.9649 11.3082 16.9605 11.1837 16.7598C11.0593 16.559 10.9393 16.3583 10.8149 16.1576C10.7438 16.0417 10.7438 15.9837 10.9038 15.9792C11.7215 15.9524 12.5347 15.9123 13.3524 15.9034C13.6101 15.9034 13.8723 15.8766 14.1301 15.8722C14.3834 15.8677 14.3922 15.8811 14.2767 16.0952C13.8723 16.849 13.4679 17.6072 13.068 18.361C12.9391 18.6019 12.8147 18.8427 12.6902 19.088C12.6591 19.0836 12.6325 19.0836 12.6102 19.0836Z" fill="#394754"/>
<path d="M3.39352 13.6774C2.35364 13.6774 1.31377 13.6774 0.273892 13.6774C-0.00163008 13.6774 -0.00607398 13.6774 0.00281384 13.3964C0.0117017 13.0173 -0.0238496 12.6426 0.0339212 12.2635C0.207234 11.1395 1.22933 10.243 2.35809 10.2341C3.04689 10.2296 3.73126 10.2296 4.42006 10.2341C5.63769 10.2385 6.67312 11.1975 6.79311 12.4151C6.82866 12.7497 6.81089 13.0842 6.81977 13.4187C6.82422 13.6596 6.80644 13.6729 6.57091 13.6729C5.73101 13.6729 4.88667 13.6729 4.04677 13.6729C3.82458 13.6774 3.60683 13.6774 3.39352 13.6774Z" fill="#394754"/>
<path d="M14.1567 13.6774C13.1124 13.6774 12.0636 13.6774 11.0193 13.6774C10.7526 13.6774 10.7438 13.6685 10.7438 13.4098C10.7438 12.8701 10.7126 12.3304 10.9082 11.8085C11.2504 10.8897 12.1614 10.2385 13.1346 10.2341C13.8145 10.2296 14.4944 10.2296 15.1743 10.2341C16.4631 10.2385 17.5474 11.3268 17.5563 12.6248C17.5563 12.8969 17.5474 13.1734 17.5607 13.4455C17.5696 13.6283 17.5029 13.6819 17.3252 13.6819C16.272 13.6729 15.2143 13.6774 14.1567 13.6774Z" fill="#394754"/>
<path d="M3.67354 3.20026C3.12694 3.20918 3.1225 3.20918 3.34025 2.8033C3.81131 1.9157 4.2868 1.0281 4.7623 0.140499C4.86007 -0.0468331 4.87784 -0.0468331 4.99339 0.140499C5.13115 0.363514 5.2778 0.577609 5.40223 0.809544C5.48666 0.970115 5.58443 0.987956 5.74885 0.943353C6.69096 0.675735 7.65529 0.586529 8.63295 0.617751C9.8728 0.657894 11.0771 0.867528 12.2059 1.42061C12.8591 1.74175 13.4368 2.15655 13.9123 2.71409C14.2278 3.0843 14.1478 3.55709 13.7479 3.74888C13.5035 3.86485 13.2191 3.82471 13.0324 3.61061C12.1525 2.57582 10.9749 2.16547 9.6906 1.97814C8.59295 1.81757 7.49975 1.84433 6.41099 2.07181C6.25101 2.10303 6.22879 2.15209 6.31767 2.2859C6.45988 2.5 6.58431 2.71855 6.72207 2.93265C6.79761 3.04861 6.77095 3.09322 6.63319 3.09768C5.81995 3.12444 5.02005 3.16458 4.2157 3.1735C4.00239 3.1735 3.79353 3.1958 3.67354 3.20026Z" fill="#394754"/>
<path d="M5.59771 7.33504C5.59771 8.55271 4.61561 9.54289 3.40242 9.54735C2.20257 9.54735 1.19824 8.54379 1.19824 7.33951C1.19824 6.13522 2.20257 5.1272 3.40242 5.1272C4.61117 5.1272 5.59771 6.11738 5.59771 7.33504Z" fill="#394754"/>
<path d="M11.9658 7.33041C11.9658 6.11721 12.9568 5.12256 14.1656 5.12256C15.3654 5.12256 16.3697 6.13505 16.3653 7.33487C16.3608 8.53915 15.3565 9.54271 14.1567 9.54271C12.9479 9.54271 11.9658 8.54807 11.9658 7.33041Z" fill="#394754"/>
</svg>
