<svg width="35" height="30" viewBox="0 0 35 30" fill="none" xmlns="http://www.w3.org/2000/svg">
<path d="M16.5585 14.9166L16.5361 14.9148L16.5135 14.9143C15.3612 14.8862 14.3409 14.8562 13.3694 14.5461L13.3694 14.5461L13.3635 14.5443C12.6771 14.3311 12.2736 14.0134 12.0505 13.6563C11.8273 13.2989 11.7207 12.7992 11.8271 12.0983L11.8272 12.0978C12.1183 10.1712 12.9821 8.57785 14.4802 7.31504L14.4888 7.30779L14.4972 7.30029C14.5342 7.26725 14.5555 7.25299 14.5954 7.22631C14.6317 7.20199 14.6834 7.16736 14.7765 7.09881C14.7802 7.10022 14.7841 7.10175 14.7882 7.10339L14.7897 7.10398C15.9331 7.55765 17.1075 7.54371 18.2368 7.106C19.8854 8.31057 20.8086 9.94625 21.1645 11.9681C21.2414 12.4147 21.2304 12.832 21.1233 13.2317L21.1228 13.2338C21.0025 13.6879 20.7434 14.0158 20.3095 14.2586C19.6728 14.6127 18.9388 14.7643 18.1062 14.8339L18.1062 14.8338L18.0936 14.8351C18.0189 14.8425 17.9462 14.85 17.8751 14.8573C17.3838 14.908 16.9713 14.9504 16.5585 14.9166Z" stroke="#D6DBDE" stroke-width="1.57143"/>
<path d="M16.2882 25.6872C16.4198 25.6945 16.54 25.6925 16.6421 25.6893C16.7151 25.6871 16.7759 25.6846 16.8281 25.6824C16.954 25.6772 17.0308 25.6741 17.1121 25.6809L17.1449 25.6836H17.1777H17.1798H17.1819H17.184H17.1861H17.1882H17.1903H17.1924H17.1945H17.1966H17.1987H17.2007H17.2028H17.2049H17.207H17.2091H17.2112H17.2132H17.2153H17.2174H17.2195H17.2215H17.2236H17.2257H17.2278H17.2298H17.2319H17.234H17.236H17.2381H17.2402H17.2422H17.2443H17.2464H17.2484H17.2505H17.2525H17.2546H17.2567H17.2587H17.2608H17.2628H17.2649H17.2669H17.269H17.271H17.2731H17.2751H17.2772H17.2792H17.2813H17.2833H17.2853H17.2874H17.2894H17.2915H17.2935H17.2955H17.2976H17.2996H17.3016H17.3037H17.3057H17.3077H17.3098H17.3118H17.3138H17.3159H17.3179H17.3199H17.3219H17.3239H17.326H17.328H17.33H17.332H17.334H17.3361H17.3381H17.3401H17.3421H17.3441H17.3461H17.3481H17.3501H17.3522H17.3542H17.3562H17.3582H17.3602H17.3622H17.3642H17.3662H17.3682H17.3702H17.3722H17.3742H17.3762H17.3782H17.3802H17.3822H17.3842H17.3862H17.3881H17.3901H17.3921H17.3941H17.3961H17.3981H17.4001H17.4021H17.404H17.406H17.408H17.41H17.412H17.4139H17.4159H17.4179H17.4199H17.4218H17.4238H17.4258H17.4278H17.4297H17.4317H17.4337H17.4356H17.4376H17.4396H17.4415H17.4435H17.4455H17.4474H17.4494H17.4514H17.4533H17.4553H17.4572H17.4592H17.4612H17.4631H17.4651H17.467H17.469H17.4709H17.4729H17.4748H17.4768H17.4787H17.4807H17.4826H17.4846H17.4865H17.4885H17.4904H17.4923H17.4943H17.4962H17.4982H17.5001H17.5021H17.504H17.5059H17.5079H17.5098H17.5117H17.5137H17.5156H17.5175H17.5195H17.5214H17.5233H17.5253H17.5272H17.5291H17.531H17.533H17.5349H17.5368H17.5387H17.5407H17.5426H17.5445H17.5464H17.5483H17.5503H17.5522H17.5541H17.556H17.5579H17.5598H17.5617H17.5637H17.5656H17.5675H17.5694H17.5713H17.5732H17.5751H17.577H17.5789H17.5808H17.5827H17.5846H17.5866H17.5885H17.5904H17.5923H17.5942H17.5961H17.598H17.5999H17.6018H17.6037H17.6055H17.6074H17.6093H17.6112H17.6131H17.615H17.6169H17.6188H17.6207H17.6226H17.6245H17.6264H17.6282H17.6301H17.632H17.6339H17.6358H17.6377H17.6395H17.6414H17.6433H17.6452H17.6471H17.649H17.6508H17.6527H17.6546H17.6565H17.6583H17.6602H17.6621H17.664H17.6658H17.6677H17.6696H17.6714H17.6733H17.6752H17.6771H17.6789H17.6808H17.6827H17.6845H17.6864H17.6883H17.6901H17.692H17.6938H17.6957H17.6976H17.6994H17.7013H17.7032H17.705H17.7069H17.7087H17.7106H17.7124H17.7143H17.7162H17.718H17.7199H17.7217H17.7236H17.7254H17.7273H17.7291H17.731H17.7328H17.7347H17.7365H17.7384H17.7402H17.7421H17.7439H17.7458H17.7476H17.7494H17.7513H17.7531H17.755H17.7568H17.7587H17.7605H17.7623H17.7642H17.766H17.7679H17.7697H17.7715H17.7734H17.7752H17.777H17.7789H17.7807H17.7825H17.7844H17.7862H17.788H17.7899H17.7917H17.7935H17.7954H17.7972H17.799H17.8008H17.8027H17.8045H17.8063H17.8081H17.81H17.8118H17.8136H17.8154H17.8173H17.8191H17.8209H17.8227H17.8246H17.8264H17.8282H17.83H17.8318H17.8337H17.8355H17.8373H17.8391H17.8409H17.8427H17.8446H17.8464H17.8482H17.85H17.8518H17.8536H17.8554H17.8572H17.8591H17.8609H17.8627H17.8645H17.8663H17.8681H17.8699H17.8717H17.8735H17.8753H17.8771H17.879H17.8808H17.8826H17.8844H17.8862H17.888H17.8898H17.8916H17.8934H17.8952H17.897H17.8988H17.9006H17.9024H17.9042H17.906H17.9078H17.9096H17.9114H17.9132H17.915H17.9168H17.9186H17.9204H17.9222H17.924H17.9258H17.9275H17.9293H17.9311H17.9329H17.9347H17.9365H17.9383H17.9401H17.9419H17.9437H17.9455H17.9473H17.949H17.9508H17.9526H17.9544H17.9562H17.958H17.9598H17.9616H17.9633H17.9651H17.9669H17.9687H17.9705H17.9723H17.9741H17.9758H17.9776H17.9794H17.9812H17.983H17.9848H17.9865H17.9883H17.9901H17.9919H17.9937H17.9954H17.9972H17.999H18.0008H18.0025H18.0043H18.0061H18.0079H18.0097H18.0114H18.0132H18.015H18.0168H18.0185H18.0203H18.0221H18.0239H18.0256H18.0274H18.0292H18.031H18.0327H18.0345H18.0363H18.038H18.0398H18.0416H18.0434H18.0451H18.0469H18.0487H18.0504H18.0522H18.054H18.0557H18.0575H18.0593H18.0611H18.0628H18.0646H18.0664H18.0681H18.0699H18.0717H18.0734H18.0752H18.077H18.0787H18.0805H18.0822H18.084H18.0858H18.0875H18.0893H18.0911H18.0928H18.0946H18.0964H18.0981H18.0999H18.1016H18.1034H18.1052H18.1069H18.1087H18.1104H18.1122H18.114H18.1157H18.1175H18.1193H18.121H18.1228H18.1245H18.1263H18.128H18.1298H18.1316H18.1333H18.1351H18.1368H18.1386H18.1404H18.1421H18.1439H18.144H18.1441H18.1442H18.1443H18.1444H18.1445H18.1446H18.1447H18.1448H18.1449H18.145H18.1451H18.1452H18.1453H18.1454H18.1455H18.1456H18.1457H18.1458H18.1459H18.146H18.1461H18.1462H18.1463H18.1464H18.1465H18.1466H18.1467H18.1468H18.1469H18.147H18.1471H18.1472H18.1473H18.1474H18.1475H18.1476H18.1477H18.1478H18.1479H18.148H18.1481H18.1482H18.1483H18.1484H18.1485H18.1487H18.1488H18.1489H18.149H18.1491H18.1492H18.1493H18.1494H18.1495H18.1496H18.1497H18.1498H18.1499H18.15H18.1501H18.1503H18.1504H18.1505H18.1506H18.1507H18.1508H18.1509H18.151H18.1511H18.1512H18.1513H18.1515H18.1516H18.1517H18.1518H18.1519H18.152H18.1521H18.1522H18.1523H18.1524H18.1526H18.1527H18.1528H18.1529H18.153H18.1531H18.1532H18.1533H18.1534H18.1536H18.1537H18.1538H18.1539H18.154H18.1541H18.1542H18.1543H18.1545H18.1546H18.1547H18.1548H18.1549H18.155H18.1551H18.1552H18.1554H18.1555H18.1556H18.1557H18.1558H18.1559H18.156H18.1562H18.1563H18.1564H18.1565H18.1566H18.1567H18.1569H18.157H18.1571H18.1572H18.1573C18.1661 25.6973 18.1885 25.7408 18.1914 25.8322C18.1942 25.9202 18.1801 25.9707 18.1708 25.994L18.1689 25.9942C17.5702 26.0644 16.9629 26.0567 16.3512 25.993L16.3512 25.993L16.3486 25.9928L16.2882 25.6872ZM16.2882 25.6872C16.3011 25.7587 16.3114 25.8252 16.3202 25.8822L16.2882 25.6872ZM16.1122 28.6608C16.1353 28.7397 16.1658 28.8183 16.2051 28.8948C15.7876 28.7539 15.3922 28.5304 15.0363 28.2371C15.3454 28.4571 15.7067 28.6058 16.1122 28.6608ZM13.9444 26.5745C14.0399 26.94 14.1909 27.2785 14.3914 27.5725C13.7475 26.748 13.3437 25.6335 13.3576 24.3594C13.3695 23.3519 13.605 22.5033 13.9752 21.8162C13.8898 22.0508 13.8343 22.2958 13.813 22.5434L13.813 22.5434C13.7442 23.3432 13.9778 24.1367 14.4525 24.7287C14.3507 24.7916 14.2559 24.8718 14.1728 24.9709C13.9744 25.2076 13.894 25.4897 13.8782 25.7494L13.8777 25.7565L13.8774 25.7637C13.8687 25.9681 13.862 26.2656 13.9444 26.5745ZM19.98 20.9626C20.6952 21.7583 21.2033 22.9075 21.2144 24.3934C21.2171 25.6299 20.8476 26.6538 20.2903 27.4252C20.5332 27.0243 20.6826 26.564 20.7105 26.0992C20.7585 25.3157 20.5204 24.527 20.0477 23.9445C20.1761 23.8557 20.2853 23.7419 20.3711 23.6103C20.5456 23.3425 20.6037 23.0355 20.6037 22.7574C20.6037 22.1022 20.3758 21.4612 19.98 20.9626ZM19.3988 28.3418C19.054 28.6031 18.6842 28.7972 18.312 28.9192C18.3542 28.8425 18.387 28.7633 18.412 28.6835C18.7713 28.6472 19.1042 28.5255 19.3988 28.3418ZM18.1811 23.0115C17.9206 22.9875 17.6708 22.9845 17.4399 22.987C17.3038 22.9885 17.1806 22.9915 17.064 22.9944C16.8546 22.9995 16.6662 23.0042 16.462 22.9984C16.3554 22.9942 16.3224 22.9615 16.3181 22.9572L16.318 22.9571C16.3142 22.9533 16.2825 22.9214 16.2809 22.8142C16.2801 22.7541 16.289 22.7215 16.2934 22.7094C16.2934 22.7093 16.2934 22.7093 16.2934 22.7093C16.2943 22.7089 16.2954 22.7085 16.2966 22.7081C16.3115 22.7026 16.3475 22.6927 16.4115 22.6927H16.4146H16.4177H16.4209H16.424H16.4271H16.4302H16.4333H16.4365H16.4396H16.4427H16.4458H16.4489H16.4521H16.4552H16.4583H16.4614H16.4646H16.4677H16.4708H16.4739H16.477H16.4802H16.4833H16.4864H16.4895H16.4926H16.4957H16.4989H16.502H16.5051H16.5082H16.5113H16.5145H16.5176H16.5207H16.5238H16.5269H16.53H16.5332H16.5363H16.5394H16.5425H16.5456H16.5487H16.5518H16.555H16.5581H16.5612H16.5643H16.5674H16.5705H16.5737H16.5768H16.5799H16.583H16.5861H16.5892H16.5923H16.5955H16.5986H16.6017H16.6048H16.6079H16.611H16.6141H16.6172H16.6204H16.6235H16.6266H16.6297H16.6328H16.6359H16.639H16.6421H16.6452H16.6484H16.6515H16.6546H16.6577H16.6608H16.6639H16.667H16.6701H16.6732H16.6763H16.6795H16.6826H16.6857H16.6888H16.6919H16.695H16.6981H16.7012H16.7043H16.7074H16.7105H16.7137H16.7168H16.7199H16.723H16.7261H16.7292H16.7323H16.7354H16.7385H16.7416H16.7447H16.7478H16.7509H16.7541H16.7572H16.7603H16.7634H16.7665H16.7696H16.7727H16.7758H16.7789H16.782H16.7851H16.7882H16.7913H16.7944H16.7975H16.8006H16.8038H16.8069H16.81H16.8131H16.8162H16.8193H16.8224H16.8255H16.8286H16.8317H16.8348H16.8379H16.841H16.8441H16.8472H16.8503H16.8534H16.8565H16.8596H16.8627H16.8658H16.8689H16.872H16.8751H16.8783H16.8814H16.8845H16.8876H16.8907H16.8938H16.8969H16.9H16.9031H16.9062H16.9093H16.9124H16.9155H16.9186H16.9217H16.9248H16.9279H16.931H16.9341H16.9372H16.9403H16.9434H16.9465H16.9496H16.9527H16.9558H16.9589H16.962H16.9651H16.9682H16.9713H16.9744H16.9775H16.9806H16.9837H16.9868H16.9899H16.993H16.9961H16.9992H17.0023H17.0054H17.0085H17.0116H17.0147H17.0178H17.0209H17.024H17.0271H17.0302H17.0333H17.0364H17.0395H17.0426H17.0457H17.0488H17.0519H17.055H17.0581H17.0612H17.0643H17.0674H17.0705H17.0736H17.0767H17.0798H17.0829H17.086H17.0891H17.0922H17.0953H17.0984H17.1015H17.1046H17.1077H17.1108H17.1139H17.117H17.1201H17.1232H17.1263H17.1294H17.1325H17.1356H17.1387H17.1418H17.1449H17.148H17.1511H17.1542H17.1573H17.1604H17.1635H17.1666H17.1697H17.1728H17.1759H17.179H17.1821H17.1852H17.1883H17.1914H17.1945H17.1976H17.2007H17.2038H17.2069H17.21H17.2131H17.2162H17.2193H17.2224H17.2255H17.2286H17.2317H17.2348H17.2379H17.241H17.2441H17.2472H17.2503H17.2534H17.2565H17.2596H17.2627H17.2658H17.2689H17.272H17.2751H17.2782H17.2813H17.2844H17.2875H17.2906H17.2937H17.2968H17.2998H17.3029H17.306H17.3091H17.3122H17.3153H17.3184H17.3215H17.3246H17.3277H17.3308H17.3339H17.337H17.3401H17.3432H17.3463H17.3494H17.3525H17.3556H17.3587H17.3618H17.3649H17.368H17.3711H17.3742H17.3773H17.3804H17.3835H17.3866H17.3897H17.3928H17.3959H17.399H17.4021H17.4052H17.4083H17.4114H17.4145H17.4176H17.4207H17.4238H17.4269H17.43H17.4331H17.4362H17.4393H17.4424H17.4456H17.4487H17.4518H17.4549H17.458H17.4611H17.4642H17.4673H17.4704H17.4735H17.4766H17.4797H17.4828H17.4859H17.489H17.4921H17.4952H17.4983H17.5014H17.5045H17.5076H17.5107H17.5138H17.5169H17.52H17.5231H17.5262H17.5293H17.5324H17.5355H17.5386H17.5417H17.5448H17.5479H17.551H17.5541H17.5572H17.5603H17.5634H17.5665H17.5696H17.5728H17.5759H17.579H17.5821H17.5852H17.5883H17.5914H17.5945H17.5976H17.6007H17.6038H17.6069H17.61H17.6131H17.6162H17.6193H17.6224H17.6255H17.6286H17.6317H17.6349H17.638H17.6411H17.6442H17.6473H17.6504H17.6535H17.6566H17.6597H17.6628H17.6659H17.669H17.6721H17.6752H17.6783H17.6815H17.6846H17.6877H17.6908H17.6939H17.697H17.7001H17.7032H17.7063H17.7094H17.7125H17.7156H17.7188H17.7219H17.725H17.7281H17.7312H17.7343H17.7374H17.7405H17.7436H17.7467H17.7498H17.753H17.7561H17.7592H17.7623H17.7654H17.7685H17.7716H17.7747H17.7778H17.781H17.7841H17.7872H17.7903H17.7934H17.7965H17.7996H17.8027H17.8059H17.809H17.8121H17.8152H17.8183H17.8214H17.8245H17.8276H17.8308H17.8339H17.837H17.8401H17.8432H17.8463H17.8494H17.8526H17.8557H17.8588H17.8619H17.865H17.8681H17.8713H17.8744H17.8775H17.8806H17.8837H17.8868H17.89H17.8931H17.8962H17.8993H17.9024H17.9055H17.9087H17.9118H17.9149H17.918H17.9211H17.9243H17.9274H17.9305H17.9336H17.9367H17.9398H17.943H17.9461H17.9492H17.9523H17.9554H17.9586H17.9617H17.9648H17.9679H17.9711H17.9742H17.9773H17.9804H17.9835H17.9867H17.9898H17.9929H17.996H17.9992H18.0023C18.0511 22.6927 18.0855 22.6956 18.1084 22.6986C18.1089 22.6999 18.1094 22.7012 18.11 22.7025C18.1294 22.7517 18.1534 22.8358 18.175 22.9732C18.1768 22.9859 18.1789 22.9987 18.1811 23.0115ZM18.2859 19.8215C18.6517 19.947 19.0167 20.1382 19.3585 20.3937C19.0655 20.2032 18.7299 20.0728 18.3616 20.0239C18.3425 19.9547 18.3173 19.8868 18.2859 19.8215ZM16.0568 20.0191C15.875 20.0449 15.7001 20.092 15.5337 20.1576C15.7214 20.0444 15.9135 19.9498 16.1067 19.8739C16.0868 19.9209 16.0702 19.9693 16.0568 20.0191ZM16.0505 28.2084C16.0505 28.2084 16.0505 28.2093 16.0505 28.2111L16.0505 28.2084Z" stroke="#D6DBDE" stroke-width="1.57143"/>
<path d="M25.7358 10.2087L25.713 10.2083L25.6904 10.2092C25.1767 10.23 24.6229 10.1872 24.0481 10.0876C23.7707 9.24341 23.3576 8.45728 22.8352 7.73576C23.1825 6.84597 23.7228 6.1062 24.5447 5.52426C25.4126 5.84788 26.286 5.81277 27.1118 5.52617C28.3522 6.4223 28.9746 7.56466 29.0688 8.96672C29.0858 9.23781 29.0198 9.39964 28.9258 9.51645C28.8195 9.64852 28.6169 9.79616 28.2463 9.91491C27.4806 10.1583 26.6771 10.2249 25.7358 10.2087ZM22.7372 7.6015C22.7372 7.60151 22.7377 7.6023 22.7386 7.60382C22.7376 7.60224 22.7371 7.60148 22.7372 7.6015Z" stroke="#D6DBDE" stroke-width="1.57143"/>
<path d="M5.49996 8.60274C5.63732 7.5581 6.2429 6.43901 7.44999 5.54225C8.30593 5.84063 9.17688 5.82892 10.0202 5.539C10.8415 6.11311 11.3852 6.8658 11.7341 7.76781C11.2238 8.51015 10.8251 9.29765 10.4689 10.0507C9.12767 10.2766 7.81043 10.2816 6.5145 9.98395C6.03154 9.87259 5.82634 9.7257 5.71866 9.58418C5.60805 9.43881 5.50142 9.16922 5.49996 8.60274ZM11.8326 7.6266C11.8326 7.62659 11.8321 7.62752 11.8309 7.62946C11.8319 7.62758 11.8326 7.62661 11.8326 7.6266ZM9.9233 5.47407C9.9233 5.47406 9.92375 5.47428 9.92467 5.47478L9.9233 5.47407Z" stroke="#D6DBDE" stroke-width="1.57143"/>
<path d="M25.721 24.9589L25.7596 25.1376C26.0048 25.1375 26.2499 25.1389 26.4951 25.1403C26.842 25.1423 27.1889 25.1443 27.5357 25.1418C27.9448 24.9171 28.3129 24.643 28.6317 24.3267C28.1927 24.3493 27.7608 24.3562 27.3255 24.3572C26.8598 24.6406 26.3198 24.8471 25.721 24.9589ZM25.721 24.9589L25.7543 25.1376C25.6365 25.1377 25.5188 25.1382 25.401 25.1392M25.721 24.9589C25.6688 24.9702 25.613 24.9731 25.5554 24.9761C25.514 24.9782 25.4717 24.9804 25.4292 24.9858L25.401 25.1392M33.269 15.6226C33.1792 15.6173 33.0588 15.616 32.9266 15.6383C33.0336 15.7517 33.1405 15.865 33.2474 15.9784M33.269 15.6226C33.268 15.6225 33.2671 15.6225 33.2661 15.6224L33.2474 15.9784M33.269 15.6226C33.2703 15.6227 33.2717 15.6228 33.273 15.6228L33.2509 15.9821M33.269 15.6226C33.483 15.6337 33.6764 15.6302 33.8967 15.6261C33.9284 15.6256 33.9607 15.625 33.9936 15.6244C34.025 15.6576 34.0564 15.6909 34.0877 15.7241C34.0044 15.7784 33.9343 15.8508 33.8839 15.9343L34.3087 16.191L34.3561 16.2196M33.2474 15.9784C33.2486 15.9796 33.2498 15.9809 33.2509 15.9821M33.2474 15.9784L33.2249 16.4071L33.2509 15.9821M33.2509 15.9821C33.3872 16.1265 33.5234 16.2709 33.6596 16.4153C33.7057 16.415 33.7518 16.4144 33.7979 16.4138C33.7947 16.3968 33.792 16.3791 33.7899 16.3607C33.7732 16.2091 33.8086 16.0711 33.8661 15.9653L34.3087 16.2059L34.3478 16.2272M34.3561 16.2196L34.3478 16.2272M34.3561 16.2196L34.3587 16.2212M34.3561 16.2196L34.4635 16.1223L34.3587 16.2212M34.3478 16.2272L34.3087 16.2626L34.1481 16.4081C34.1523 16.4081 34.1566 16.408 34.1608 16.408L34.3087 16.2684L34.3507 16.2288M34.3478 16.2272L34.3507 16.2288M34.3507 16.2288L34.3587 16.2212M34.3507 16.2288L34.5564 16.3406L34.3587 16.2212M31.0102 12.8753L30.6485 13.2135C30.7749 13.3488 30.9015 13.4841 31.0283 13.6194C31.1503 13.4942 31.2737 13.365 31.3944 13.232C31.3942 13.2322 31.394 13.2324 31.3938 13.2326M31.0102 12.8753L31.013 12.8779M31.0102 12.8753L31.014 12.8718M31.0102 12.8753L30.8199 12.6959L31.014 12.8718M31.013 12.8779L30.6555 13.2209L30.6556 13.221C30.6578 13.2233 30.6943 13.2616 30.7675 13.2974C30.8516 13.3386 30.9677 13.3681 31.0996 13.3535C31.2235 13.3398 31.3093 13.2931 31.3502 13.2661C31.3713 13.2522 31.3853 13.2404 31.3916 13.2347M31.013 12.8779L31.3916 13.2347M31.013 12.8779L31.0168 12.8743M31.3916 13.2347L31.3917 13.2348C31.3925 13.2339 31.3932 13.2332 31.3938 13.2326M31.3916 13.2347C31.3925 13.2339 31.3932 13.2332 31.3938 13.2326M31.3938 13.2326C31.3942 13.2322 31.3945 13.2319 31.3948 13.2316C31.3948 13.2316 31.3948 13.2316 31.3948 13.2316C31.3972 13.2289 31.3997 13.2262 31.4021 13.2235L31.0168 12.8743M31.0168 12.8743L31.014 12.8718M31.0168 12.8743L31.2225 12.6769L31.014 12.8718M25.401 25.1392L25.3997 24.9901C25.3122 25.0046 25.2246 25.0357 25.1429 25.1108C25.2668 25.1203 25.3494 25.1297 25.401 25.1392ZM32.0367 20.8603C32.0367 20.8609 32.0367 20.8615 32.0366 20.8621L32.8223 20.8681L32.0367 20.8585C32.0367 20.8591 32.0367 20.8597 32.0367 20.8603ZM30.7375 13.9139L30.742 13.9095C30.7434 13.9079 30.7449 13.9064 30.7463 13.9049L30.18 13.3603L30.7375 13.9139ZM28.6571 15.6148C28.4529 15.6324 28.246 15.628 28.0026 15.6203C27.9698 15.6545 27.9371 15.6887 27.9043 15.723C27.9779 15.7714 28.0428 15.8352 28.0924 15.9113L27.7306 16.1474L27.7234 16.1521L27.6797 16.1806L27.4344 16.3406L27.6903 16.1908L27.7234 16.1714L27.73 16.1675L28.1124 15.9436C28.1678 16.0382 28.2183 16.1886 28.1925 16.3692C28.1904 16.3836 28.1879 16.3976 28.1851 16.4112C28.2341 16.4121 28.2831 16.4126 28.3321 16.4126C28.4524 16.2866 28.5728 16.1608 28.6933 16.0351C28.6942 16.0342 28.695 16.0334 28.6958 16.0325C28.8241 15.8988 28.9524 15.7653 29.0808 15.6319C28.9208 15.6019 28.7724 15.6057 28.6629 15.6143L28.6629 15.6143L28.6571 15.6148Z" stroke="#D6DBDE" stroke-width="1.57143"/>
<path d="M3.7832 21.4319C3.815 22.5127 4.2536 23.5341 4.94237 24.316C4.83381 24.303 4.72517 24.2867 4.61606 24.2665L4.61382 24.2661C3.62923 24.0865 2.37468 23.1048 2.29086 21.4343L2.2908 21.4331C2.24168 20.4839 2.24848 19.5601 2.25548 18.6104C2.25952 18.0607 2.26363 17.5022 2.25701 16.9252L2.25692 16.9201C2.25674 16.9097 2.25656 16.899 2.25637 16.8879C2.25479 16.7922 2.25277 16.6703 2.24129 16.5678C2.22946 16.4622 2.19389 16.2021 1.98869 15.9791C1.80839 15.7831 1.59145 15.7156 1.45417 15.6889L2.8794 13.8751C2.90332 13.8451 2.93639 13.8058 2.9752 13.7598C2.98551 13.7476 2.99624 13.7349 3.0073 13.7217C3.51601 14.3541 4.02763 14.9824 4.53869 15.6085C4.36692 15.6471 4.1778 15.7337 4.01966 15.9144C3.78257 16.1854 3.76542 16.5073 3.76541 16.66L3.76544 16.6643C3.7684 17.2018 3.76507 17.751 3.7617 18.3058C3.75543 19.3415 3.74903 20.3967 3.7832 21.4319ZM3.42061 13.1749C3.42061 13.1749 3.41978 13.1761 3.41809 13.1782C3.41975 13.1759 3.4206 13.1748 3.42061 13.1749Z" stroke="#D6DBDE" stroke-width="1.57143"/>
<path d="M19.6425 3.14369L19.6425 3.14431C19.6194 4.43995 18.4798 5.52951 17.2489 5.49938C15.9854 5.46845 14.9066 4.34086 14.9289 3.14202L14.9289 3.14141C14.9519 1.84576 16.0915 0.756203 17.3225 0.786333C18.586 0.817261 19.6647 1.94485 19.6425 3.14369Z" stroke="#D6DBDE" stroke-width="1.57143"/>
<path d="M9.876 1.10842C9.60231 0.925006 9.17855 0.785714 8.66484 0.785714C8.12924 0.785714 7.69303 0.925848 7.41355 1.10954C7.13159 1.29485 7.07275 1.47116 7.0715 1.57021C7.07041 1.65726 7.12146 1.83378 7.40848 2.02614C7.68981 2.21469 8.12482 2.35714 8.64291 2.35714C9.161 2.35714 9.59601 2.21469 9.87734 2.02614C10.1643 1.83384 10.2154 1.65737 10.2143 1.57029C10.2143 1.57026 10.2143 1.57024 10.2143 1.57021M9.876 1.10842L11 1.56034M9.876 1.10842C10.1532 1.29418 10.213 1.47146 10.2143 1.57021M9.876 1.10842L10.2143 1.57021M10.2143 1.57021L11 1.56034M11 1.56034C10.989 0.695126 9.95848 0 8.66484 0C7.3383 0 6.29681 0.687732 6.28585 1.56034C6.27489 2.43294 7.3383 3.14286 8.64291 3.14286C9.94751 3.14286 11.0109 2.43294 11 1.56034Z" stroke="#D6DBDE" stroke-width="1.57143"/>
<path d="M25.1574 0.785714C25.5785 0.785714 25.9247 1.12298 25.9285 1.56692L25.9285 1.56697C25.9322 2.00554 25.5809 2.35714 25.1501 2.35714C24.7096 2.35714 24.3589 2.00229 24.3571 1.57095C24.3625 1.12592 24.7036 0.785714 25.1574 0.785714Z" stroke="#D6DBDE" stroke-width="1.57143"/>
</svg>
