<svg width="10" height="14" viewBox="0 0 10 14" fill="none" xmlns="http://www.w3.org/2000/svg">
<path d="M4.99979 14C6.32593 14 7.59775 13.4855 8.53547 12.5696C9.47319 11.6537 10 10.4115 10 9.11628C10 8.55237 9.84666 8.01126 9.66665 7.50791C8.55527 8.58037 7.71124 9.11628 7.13321 9.11628C9.79666 4.55814 8.33326 2.60465 4.33309 0C4.66644 3.25581 2.46901 4.73656 1.57431 5.55898C0.844494 6.22947 0.337747 7.09864 0.119768 8.05379C-0.0982107 9.00895 -0.0173659 10.006 0.35182 10.9158C0.721006 11.8255 1.3615 12.606 2.19027 13.1559C3.01904 13.7058 3.99785 13.9999 4.99979 14ZM5.47314 2.43209C7.6339 4.22279 7.64457 5.61433 5.97516 8.47098C5.46781 9.33898 6.10983 10.4186 7.13321 10.4186C7.5919 10.4186 8.05592 10.2884 8.54594 10.0312C8.40069 10.5671 8.13005 11.0627 7.75534 11.4791C7.38063 11.8954 6.91207 12.2212 6.38656 12.4306C5.86105 12.64 5.29293 12.7275 4.72695 12.686C4.16096 12.6445 3.61255 12.4753 3.12491 12.1917C2.63727 11.908 2.2237 11.5176 1.91678 11.0513C1.60985 10.585 1.41795 10.0555 1.35618 9.50443C1.2944 8.95337 1.36445 8.39583 1.5608 7.8757C1.75714 7.35558 2.07443 6.88707 2.48768 6.50707C2.57168 6.43023 2.9977 6.06102 3.01637 6.04474C3.29905 5.7973 3.53172 5.57786 3.76173 5.33758C4.58177 4.47935 5.17113 3.52735 5.47247 2.43209H5.47314Z" fill="#FCD434"/>
</svg>
