<svg width="14" height="17" viewBox="0 0 14 17" fill="none" xmlns="http://www.w3.org/2000/svg">
<path d="M11.3553 4.45174C12.3084 4.45174 13.0811 3.67904 13.0811 2.72587C13.0811 1.7727 12.3084 1 11.3553 1C10.4021 1 9.62939 1.7727 9.62939 2.72587C9.62939 3.67904 10.4021 4.45174 11.3553 4.45174Z" stroke="#FAD432" stroke-width="1.15058" stroke-miterlimit="10" stroke-linecap="round" stroke-linejoin="round"/>
<path d="M7.90336 4.45166L5.1995 7.15552C4.33657 8.01846 4.62421 9.57174 5.77479 10.032L8.01842 10.8949C8.65124 11.125 9.11147 11.7578 9.11147 12.4482V15.8999" stroke="#FAD432" stroke-width="1.15058" stroke-miterlimit="10" stroke-linecap="round" stroke-linejoin="round"/>
<path d="M6.17761 10.2047L4.68185 11.7004C4.22162 12.1607 3.47375 12.1607 3.07104 11.7004L1 9.62939" stroke="#FAD432" stroke-width="1.15058" stroke-miterlimit="10" stroke-linecap="round" stroke-linejoin="round"/>
<path d="M7.32812 9.05418L10.2046 6.17773" stroke="#FAD432" stroke-width="1.15058" stroke-miterlimit="10" stroke-linecap="round" stroke-linejoin="round"/>
</svg>
