<svg width="13" height="13" viewBox="0 0 13 13" fill="none" xmlns="http://www.w3.org/2000/svg">
<path d="M13 5.70286C12.9826 6.88614 12.5938 7.886 11.8266 8.7276C11.3684 9.23112 10.9067 9.73105 10.445 10.231C10.3652 10.3173 10.3617 10.3497 10.4728 10.4072C10.6533 10.5007 10.7262 10.7129 10.6533 10.9287C10.5388 11.2704 10.4173 11.6121 10.2888 11.9537C10.202 12.1839 9.98334 12.2918 9.7577 12.2055C8.88638 11.8782 8.01507 11.5437 7.14722 11.2092C6.932 11.1265 6.83133 10.8963 6.9077 10.6698C7.02572 10.3173 7.15069 9.96842 7.27914 9.61955C7.35898 9.40736 7.56379 9.30305 7.77554 9.37139C7.90051 9.41095 7.91093 9.357 7.92134 9.2527C7.95605 8.89664 7.95258 8.53338 8.06714 8.18811C8.29972 7.48677 8.75794 7.03001 9.44181 6.81781C9.52859 6.78903 9.59802 6.74947 9.6605 6.68473C9.90003 6.43657 10.1361 6.1884 10.3791 5.94024C10.4485 5.86831 10.5179 5.77479 10.6047 5.74242C10.8338 5.64891 10.872 5.46908 10.8859 5.24609C10.9206 4.69941 10.9727 4.15633 11.0178 3.60964C11.0595 3.10252 11.2747 2.68891 11.6843 2.40119C12.0106 2.171 12.4133 2.32566 12.4931 2.72848C12.6632 3.57727 12.8438 4.42247 12.9757 5.27846C13 5.42233 12.993 5.57698 13 5.70286ZM12.6875 5.71005C12.691 5.49426 12.6806 5.27846 12.6389 5.06626C12.4966 4.33256 12.3543 3.59526 12.2154 2.86155C12.1634 2.599 12.0002 2.53066 11.7954 2.7033C11.5489 2.90831 11.3788 3.16726 11.3441 3.49455C11.2851 4.08439 11.2365 4.67424 11.1879 5.26408C11.1706 5.49066 11.174 5.48707 11.3823 5.51584C11.5871 5.54461 11.778 5.59496 11.8579 5.82874C11.9343 6.05533 11.8197 6.20998 11.6739 6.36104C11.174 6.87176 10.6776 7.38967 10.1812 7.90398C10.15 7.93635 10.1222 7.96872 10.0875 7.99749C10.0215 8.05144 9.94863 8.05504 9.88614 7.99389C9.82366 7.93275 9.82713 7.85722 9.87573 7.78529C9.9035 7.74573 9.93821 7.70976 9.97293 7.67739C10.4763 7.15589 10.9796 6.63438 11.483 6.11287C11.5316 6.06252 11.5906 6.01217 11.5628 5.92945C11.535 5.85032 11.4621 5.85032 11.3997 5.83953C11.122 5.79278 10.8859 5.8719 10.6846 6.07331C10.386 6.37542 10.0944 6.68114 9.79936 6.98325C9.74382 7.0408 9.67439 7.07316 9.59802 7.09474C8.91416 7.28896 8.47676 7.73853 8.31708 8.45426C8.25112 8.75997 8.25112 9.07647 8.21641 9.38937C8.20599 9.49008 8.22682 9.53324 8.31708 9.56561C8.84473 9.76342 9.36891 9.96123 9.88961 10.1662C10.0042 10.213 10.0667 10.1878 10.1465 10.1015C10.629 9.5692 11.122 9.0405 11.6079 8.50821C12.3196 7.72775 12.6875 6.79263 12.6875 5.71005ZM10.3617 10.8244C10.3721 10.6913 10.3027 10.6662 10.2368 10.641C9.41056 10.3245 8.58437 10.0116 7.75819 9.69508C7.61586 9.64113 7.57767 9.65912 7.5256 9.81017C7.42146 10.1051 7.31732 10.4 7.20971 10.6949C7.15764 10.846 7.16805 10.8784 7.31732 10.9359C7.6714 11.0726 8.02548 11.2057 8.37956 11.3423C8.84473 11.5186 9.30642 11.6984 9.77159 11.8746C9.84449 11.9034 9.94168 11.9466 9.98334 11.853C10.1396 11.5114 10.2472 11.1445 10.3617 10.8244Z" fill="#FFDA44"/>
<path d="M1.04898 2.29419C1.11836 2.29059 1.21895 2.32658 1.31261 2.39494C1.71846 2.69001 1.93699 3.09662 1.97862 3.60399C2.03065 4.2337 2.08615 4.8634 2.13818 5.49311C2.14512 5.55788 2.1694 5.60106 2.22837 5.62985C2.39487 5.71261 2.53015 5.83855 2.6585 5.97529C2.88744 6.21278 3.11985 6.45027 3.34879 6.69136C3.40776 6.75253 3.47366 6.79211 3.55691 6.8173C4.38248 7.05479 4.97564 7.81764 5.02768 8.70283C5.03808 8.90074 5.06236 9.09505 5.07971 9.29296C5.08664 9.38292 5.1248 9.40091 5.20805 9.37932C5.45434 9.31095 5.64512 9.41171 5.73531 9.65999C5.85671 9.98744 5.97118 10.3149 6.08565 10.6459C6.17584 10.9086 6.07178 11.1317 5.81856 11.2289C4.98258 11.5491 4.14661 11.873 3.30716 12.1896C3.00191 12.3048 2.79725 12.2004 2.68625 11.8874C2.58219 11.5887 2.47465 11.29 2.36712 10.9878C2.26999 10.7143 2.32896 10.5344 2.57525 10.3869C2.66544 10.3329 2.6134 10.3005 2.57525 10.2573C2.31856 9.97664 2.06187 9.69597 1.80518 9.4153C1.49646 9.07346 1.16345 8.75681 0.88942 8.38618C0.344821 7.65931 0.0569127 6.84249 0.00488096 5.92491C-0.0263381 5.35278 0.098538 4.80943 0.199133 4.25888C0.289321 3.76951 0.386447 3.28014 0.480104 2.79436C0.546011 2.47411 0.733325 2.29419 1.04898 2.29419ZM0.310134 5.67663C0.306665 6.62299 0.566823 7.465 1.11489 8.17028C1.6699 8.88275 2.32203 9.50166 2.91519 10.1746C2.96028 10.2249 3.00191 10.2213 3.05394 10.1997C3.60201 9.98744 4.15007 9.77874 4.70161 9.57003C4.77445 9.54124 4.79874 9.50526 4.78486 9.4225C4.75711 9.1994 4.7363 8.97631 4.72242 8.75321C4.67733 7.95798 4.16742 7.31028 3.42163 7.11237C3.32104 7.08358 3.24125 7.0368 3.16841 6.96124C2.8805 6.65178 2.58912 6.34952 2.29081 6.05445C2.12777 5.89253 1.92312 5.82056 1.69765 5.83136C1.60746 5.83496 1.48952 5.82416 1.44442 5.92851C1.39239 6.04726 1.51033 6.10123 1.57277 6.1696C2.07227 6.69136 2.57872 7.21312 3.08169 7.73488C3.15453 7.81044 3.2031 7.9004 3.11985 7.99396C3.04006 8.08032 2.95334 8.04793 2.8805 7.97237C2.33243 7.40383 1.7809 6.83529 1.2363 6.26316C1.01776 6.03286 1.11489 5.66943 1.40974 5.56868C1.50686 5.53629 1.61093 5.51111 1.71499 5.5183C1.81905 5.5255 1.83987 5.47872 1.82946 5.38157C1.77743 4.80583 1.7254 4.2301 1.67683 3.65076C1.64215 3.25855 1.49299 2.9311 1.18427 2.69361C0.986546 2.54248 0.830451 2.61084 0.781888 2.85913C0.698637 3.29453 0.60498 3.72993 0.528667 4.16533C0.441947 4.67989 0.285852 5.18726 0.310134 5.67663ZM3.13372 11.909C3.158 11.9018 3.2031 11.8874 3.24819 11.873C3.61588 11.7326 3.9801 11.5923 4.34433 11.452C4.78486 11.2828 5.22193 11.1173 5.66246 10.9482C5.75612 10.9122 5.84631 10.8762 5.79428 10.7359C5.67981 10.4192 5.56881 10.1026 5.4578 9.78593C5.41965 9.68158 5.36068 9.6456 5.25662 9.68518C4.41717 10.009 3.57426 10.3293 2.73134 10.6495C2.64115 10.6855 2.60647 10.7467 2.63769 10.8366C2.75216 11.1605 2.86663 11.4879 2.98456 11.8118C3.00538 11.8766 3.04353 11.9161 3.13372 11.909Z" fill="#FFDA44"/>
<path d="M9.44227 5.232C9.28669 5.19943 9.10578 5.16687 8.92487 5.11983C8.82718 5.0945 8.76567 5.11259 8.70416 5.19219C8.57028 5.3695 8.4147 5.52871 8.23379 5.65897C8.15057 5.72049 8.1361 5.782 8.16143 5.87608C8.20485 6.04253 8.23379 6.21259 8.26997 6.37904C8.2953 6.50207 8.25188 6.57806 8.1361 6.6251C7.94072 6.70108 7.74895 6.78069 7.55719 6.86029C7.44502 6.90733 7.36542 6.87839 7.30391 6.78069C7.21346 6.63595 7.11577 6.49483 7.02531 6.34648C6.97828 6.26687 6.92038 6.22707 6.82631 6.24516C6.59836 6.28134 6.3668 6.28134 6.13885 6.24516C6.0484 6.23069 5.99774 6.27049 5.95071 6.34286C5.86387 6.48398 5.7698 6.6251 5.67934 6.76621C5.61059 6.87477 5.52738 6.91095 5.40436 6.85306C5.21621 6.76983 5.02083 6.69023 4.82906 6.61424C4.70966 6.5672 4.6771 6.48036 4.70604 6.36457C4.74223 6.19812 4.77479 6.02805 4.81821 5.86161C4.83992 5.77476 4.82544 5.71687 4.75308 5.66259C4.56493 5.51785 4.3985 5.35141 4.261 5.16325C4.21759 5.10173 4.17055 5.09088 4.1018 5.10535C3.92089 5.14877 3.73998 5.17772 3.55907 5.22114C3.43967 5.25009 3.36731 5.20667 3.32389 5.09812C3.24429 4.90272 3.16469 4.70371 3.08147 4.50831C3.03082 4.39252 3.067 4.3093 3.17193 4.24416C3.32027 4.15008 3.46862 4.05239 3.61696 3.96193C3.67847 3.92574 3.70742 3.8787 3.69656 3.80633C3.65676 3.55304 3.664 3.30337 3.7038 3.05008C3.71466 2.98133 3.67847 2.95238 3.62782 2.92343C3.47585 2.82574 3.32389 2.72442 3.17193 2.63034C3.067 2.56521 3.04167 2.47837 3.08871 2.36258C3.17193 2.1708 3.25153 1.97902 3.32751 1.78725C3.37816 1.66422 3.46138 1.63165 3.58802 1.6606C3.75084 1.7004 3.91366 1.72935 4.07648 1.76915C4.15969 1.79086 4.2212 1.77639 4.2791 1.70402C4.42382 1.51224 4.59026 1.34218 4.78564 1.19744C4.84354 1.15402 4.85077 1.10698 4.8363 1.04547C4.80012 0.871781 4.76755 0.701715 4.72775 0.52803C4.69881 0.397766 4.73861 0.310924 4.86886 0.260266C5.05701 0.187897 5.24516 0.108291 5.4333 0.0250672C5.54908 -0.0255909 5.6323 -0.000261847 5.69743 0.108291C5.7915 0.260266 5.89643 0.41224 5.98689 0.567833C6.02307 0.632965 6.06649 0.654675 6.13885 0.64382C6.38489 0.604017 6.63455 0.611254 6.88058 0.647438C6.95295 0.658294 6.98913 0.629346 7.02169 0.57507C7.11939 0.423095 7.22069 0.271121 7.31477 0.119147C7.3799 0.0142119 7.46673 -0.0111172 7.58252 0.0359225C7.77428 0.115528 7.96604 0.195134 8.15781 0.274739C8.27359 0.321779 8.31339 0.401385 8.28806 0.520793C8.24826 0.69086 8.2157 0.864544 8.17228 1.03823C8.15057 1.11784 8.16866 1.17573 8.23741 1.22639C8.42917 1.37474 8.59561 1.54481 8.74034 1.73659C8.78376 1.7981 8.8308 1.80896 8.90316 1.79086C9.08407 1.74744 9.26498 1.71126 9.44589 1.67146C9.56167 1.64613 9.63404 1.69317 9.67746 1.80172C9.75344 1.9935 9.82942 2.18889 9.91626 2.37705C9.97053 2.50008 9.93435 2.5833 9.8258 2.65205C9.68831 2.73889 9.55444 2.83297 9.41333 2.91258C9.33011 2.96324 9.28307 3.02113 9.30116 3.11883C9.34096 3.36127 9.32649 3.60732 9.29393 3.84614C9.28307 3.91127 9.31925 3.9366 9.36267 3.96193C9.51464 4.05962 9.6666 4.16094 9.81857 4.25502C9.92711 4.32377 9.95968 4.41061 9.90902 4.53002C9.8258 4.72542 9.74258 4.92081 9.66298 5.11621C9.62318 5.19943 9.56167 5.24285 9.44227 5.232ZM4.2393 4.74351C4.34784 4.74351 4.3985 4.79779 4.44191 4.86292C4.56855 5.05108 4.7169 5.22476 4.89781 5.36226C5.24516 5.61917 5.20536 5.55766 5.10766 6.0172C5.0353 6.36095 5.03168 6.36095 5.36456 6.48759C5.4333 6.51292 5.4731 6.50207 5.50928 6.44056C5.5925 6.30667 5.68658 6.17641 5.76618 6.03891C5.84216 5.90865 5.94347 5.87608 6.08458 5.90141C6.28358 5.93397 6.48258 5.9593 6.68882 5.93036C7.11215 5.87246 7.10853 5.88332 7.34733 6.24878C7.56442 6.58167 7.44502 6.54187 7.82855 6.39713C7.91539 6.36457 7.9371 6.31391 7.91539 6.23069C7.87921 6.07148 7.85026 5.91226 7.81046 5.75305C7.7779 5.63726 7.8177 5.56128 7.90815 5.49976C8.16143 5.32608 8.3749 5.11259 8.54858 4.86292C8.61732 4.7616 8.70054 4.73627 8.81632 4.76522C8.98276 4.80502 9.15281 4.83397 9.31925 4.87377C9.39162 4.89186 9.4278 4.8593 9.43865 4.8014C9.46398 4.67838 9.60147 4.58792 9.52911 4.44318C9.51825 4.42147 9.48569 4.41423 9.46398 4.39976C9.33373 4.31653 9.21071 4.22607 9.07683 4.15008C8.96467 4.08495 8.93572 3.99811 8.95743 3.87508C8.99723 3.66521 9.03341 3.44811 8.98276 3.24186C8.89954 2.90172 9.04065 2.7208 9.32649 2.56883C9.61956 2.41324 9.60509 2.39514 9.45674 2.08396C9.42056 2.00797 9.37353 1.98626 9.29754 2.00435C9.14558 2.04054 8.98638 2.06587 8.83441 2.10929C8.70778 2.14547 8.62818 2.10567 8.55581 2.00435C8.38937 1.7583 8.18314 1.54843 7.9371 1.38198C7.82855 1.30599 7.79599 1.21553 7.82493 1.09251C7.86474 0.929676 7.89368 0.766847 7.9371 0.604017C7.96243 0.509938 7.90454 0.484609 7.84303 0.473753C7.72363 0.455661 7.63317 0.292831 7.49206 0.408621C7.47759 0.419477 7.47035 0.437569 7.46311 0.452043C7.38351 0.57507 7.3003 0.69086 7.23155 0.817505C7.15557 0.955005 7.05064 0.987571 6.90229 0.958624C6.63455 0.911584 6.36318 0.911584 6.09182 0.958624C5.94709 0.983953 5.83492 0.951387 5.7698 0.80665C5.73723 0.734281 5.68296 0.669149 5.63954 0.600399C5.46587 0.325397 5.46587 0.329016 5.16556 0.45928C5.07872 0.495464 5.04977 0.546122 5.07148 0.636583C5.10766 0.795794 5.13661 0.955005 5.17279 1.11422C5.19812 1.22277 5.16556 1.29876 5.0751 1.35665C4.82544 1.51948 4.61921 1.72935 4.45277 1.9754C4.36955 2.09481 4.27186 2.12376 4.13799 2.09119C3.98602 2.05139 3.83044 2.02244 3.67486 1.98988C3.63867 1.98264 3.59525 1.95731 3.57716 1.99712C3.52289 2.11652 3.46862 2.23593 3.4252 2.35896C3.40711 2.406 3.46138 2.42409 3.49395 2.4458C3.62782 2.53264 3.75446 2.6231 3.89195 2.70271C4.01497 2.77146 4.04753 2.86916 4.0222 2.99942C3.96793 3.28528 3.96793 3.57475 4.0222 3.86061C4.04753 3.98726 4.00773 4.08133 3.89195 4.14285C3.80873 4.18627 3.72913 4.24416 3.64953 4.29482C3.39625 4.45765 3.40711 4.45403 3.50842 4.73627C3.55545 4.86292 3.62058 4.87377 3.73275 4.84482C3.91004 4.80864 4.08371 4.77607 4.2393 4.74351Z" fill="#FFDA44"/>
<path d="M8.41168 10.3282C8.41168 10.5365 8.24242 10.7031 8.03084 10.7061C7.81926 10.7061 7.64697 10.5335 7.64697 10.3193C7.65 10.111 7.81926 9.94438 8.02781 9.94141C8.24242 9.94141 8.41168 10.111 8.41168 10.3282ZM8.02479 10.4324C8.09733 10.4324 8.14267 10.3996 8.14569 10.3282C8.14872 10.2598 8.10942 10.2122 8.0399 10.2092C7.96736 10.2062 7.919 10.2449 7.91598 10.3223C7.91296 10.3907 7.95527 10.4264 8.02479 10.4324Z" fill="#FFDA44"/>
<path d="M5.3528 10.3327C5.34977 10.5388 5.17682 10.7091 4.96745 10.7061C4.75202 10.7031 4.58514 10.5299 4.58818 10.3148C4.59121 10.1057 4.76416 9.93846 4.97352 9.94145C5.18895 9.94443 5.35583 10.1177 5.3528 10.3327ZM4.97049 10.4343C5.04027 10.4313 5.08579 10.3984 5.08579 10.3238C5.08579 10.2491 5.03724 10.2013 4.96442 10.2043C4.89767 10.2073 4.85519 10.2521 4.85519 10.3208C4.85519 10.3954 4.9007 10.4313 4.97049 10.4343Z" fill="#FFDA44"/>
<path d="M6.49367 4.58812C5.44938 4.58812 4.58399 3.89581 4.58815 3.06038C4.58815 2.22162 5.46186 1.52598 6.51031 1.52931C7.54628 1.53264 8.41166 2.2316 8.41166 3.06371C8.4075 3.89914 7.53796 4.58812 6.49367 4.58812ZM6.5852 1.83552C5.73229 1.7856 4.99588 2.3015 4.95428 3.01045C4.91683 3.63287 5.47018 4.25528 6.43958 4.29522C7.23424 4.32518 7.99561 3.87251 8.03722 3.10365C8.07882 2.36807 7.32577 1.84551 6.5852 1.83552Z" fill="#FFDA44"/>
</svg>
