<svg width="11" height="11" viewBox="0 0 11 11" fill="none" xmlns="http://www.w3.org/2000/svg">
<path d="M7.15428 5.71026C7.37183 5.79419 7.57339 5.87191 7.76215 5.97139C7.85173 6.01802 7.93811 6.06155 8.0245 6.11129C8.30604 6.27605 8.39242 6.57449 8.23885 6.83251C8.08848 7.08432 7.76215 7.15582 7.48701 6.99417C7.0647 6.74547 6.61679 6.56827 6.13369 6.47501C3.83337 6.02424 1.63863 7.43872 1.15233 9.62727C1.08835 9.91638 1.05955 10.2086 1.05315 10.5039C1.04676 10.7682 0.8356 10.9733 0.557258 10.9982C0.320508 11.02 0.0645616 10.8397 0.019771 10.6034C-0.0122223 10.4386 0.000574991 10.2708 0.0165716 10.1029C0.0901562 9.28531 0.336505 8.52056 0.781211 7.82109C1.36669 6.90401 2.16972 6.22631 3.18711 5.79109C3.29908 5.74445 3.29908 5.74445 3.19671 5.66363C2.48645 5.11027 2.05774 4.39526 1.95856 3.51549C1.7794 1.8834 2.88637 0.450275 4.45404 0.0865531C6.29366 -0.342453 8.14927 0.869955 8.42121 2.69167C8.60037 3.88232 8.17806 4.85536 7.24386 5.63254C7.22146 5.65119 7.19907 5.67295 7.15428 5.71026ZM7.40702 3.17042C7.42942 2.00464 6.42163 1.01917 5.19949 1.0285C3.96774 1.03783 2.99835 1.97977 3.00155 3.17975C3.00155 4.3735 3.97414 5.2999 5.20588 5.31545C6.39284 5.32788 7.43262 4.35796 7.40702 3.17042Z" fill="#FAD432"/>
<path d="M6.48242 8.87405C6.6045 8.86423 6.71338 8.91657 6.81896 8.98855C7.13241 9.19792 7.44915 9.40728 7.7626 9.61665C7.90118 9.70825 7.90448 9.70825 7.99356 9.57413C8.56107 8.7301 9.12857 7.88935 9.69608 7.04533C9.84455 6.82615 10.0623 6.73128 10.2867 6.78362C10.6661 6.87522 10.8377 7.27433 10.6265 7.60147C10.4451 7.88935 10.2504 8.16742 10.059 8.44876C9.5608 9.19137 9.06258 9.93071 8.56437 10.6733C8.53797 10.7093 8.51487 10.7486 8.48518 10.7845C8.30371 11.0103 8.01336 11.0692 7.7659 10.9121C7.22479 10.5621 6.68698 10.2055 6.14917 9.84565C5.94791 9.71153 5.87532 9.45963 5.9545 9.23717C6.03369 9.00817 6.22506 8.87405 6.48242 8.87405Z" fill="#FAD432"/>
</svg>
