<svg width="15" height="15" viewBox="0 0 15 15" fill="none" xmlns="http://www.w3.org/2000/svg">
<path d="M12.3564 2.64357C11.6655 1.95886 10.7322 1.57471 9.75954 1.57471C8.78683 1.57471 7.8535 1.95886 7.16266 2.64357L6.62125 3.18497C6.53329 3.27293 6.48389 3.39223 6.48389 3.51661C6.48389 3.64102 6.53329 3.76029 6.62125 3.84825C6.70921 3.93622 6.82849 3.98562 6.95289 3.98562C7.07728 3.98562 7.19657 3.93622 7.28454 3.84825L7.82594 3.30685C8.34246 2.81225 9.03215 2.5396 9.74725 2.54736C10.4624 2.55509 11.146 2.8426 11.6517 3.34829C12.1574 3.85397 12.4449 4.53762 12.4526 5.25272C12.4604 5.96782 12.1877 6.65752 11.6931 7.17404L11.1517 7.71544C11.0638 7.8034 11.0144 7.9227 11.0144 8.04708C11.0144 8.17149 11.0638 8.29076 11.1517 8.37872C11.2397 8.46668 11.359 8.51609 11.4834 8.51609C11.6077 8.51609 11.727 8.46668 11.815 8.37872L12.3564 7.83732C13.044 7.14797 13.4301 6.21408 13.4301 5.24044C13.4301 4.26683 13.044 3.33293 12.3564 2.64357Z" fill="#D6DBDE"/>
<path d="M7.7155 11.1517L7.1741 11.6931C4.50691 14.1564 0.845964 10.4978 3.30691 7.82594L3.84832 7.28454C3.93625 7.19657 3.98568 7.07728 3.98568 6.95289C3.98568 6.82849 3.93625 6.70921 3.84832 6.62125C3.76036 6.53329 3.64106 6.48389 3.51668 6.48389C3.39227 6.48389 3.27297 6.53329 3.18504 6.62125L2.64363 7.16266C1.96408 7.85329 1.58498 8.78449 1.5889 9.75337C1.59282 10.7223 1.97945 11.6504 2.66456 12.3355C3.34968 13.0206 4.27776 13.4072 5.24664 13.4111C6.21555 13.4151 7.14672 13.036 7.83738 12.3564L8.37879 11.815C8.46672 11.727 8.51615 11.6077 8.51615 11.4834C8.51615 11.359 8.46672 11.2397 8.37879 11.1517C8.29082 11.0638 8.17153 11.0144 8.04714 11.0144C7.92274 11.0144 7.80344 11.0638 7.7155 11.1517Z" fill="#D6DBDE"/>
<path d="M8.88766 5.44938L5.44938 8.88766C5.36142 8.97562 5.31201 9.09489 5.31201 9.2193C5.31201 9.34368 5.36142 9.46298 5.44938 9.55094C5.53734 9.6389 5.65661 9.68831 5.78102 9.68831C5.9054 9.68831 6.0247 9.6389 6.11266 9.55094L9.55094 6.11266C9.6389 6.0247 9.68831 5.9054 9.68831 5.78102C9.68831 5.65661 9.6389 5.53734 9.55094 5.44938C9.46298 5.36142 9.34368 5.31201 9.2193 5.31201C9.09489 5.31201 8.97562 5.36142 8.88766 5.44938Z" fill="#D6DBDE"/>
</svg>
