<?xml version="1.0" encoding="UTF-8"?>
<svg id="Layer_1" data-name="Layer 1" xmlns="http://www.w3.org/2000/svg" viewBox="0 0 1080 1080">
  <defs>
    <style>
      .cls-1 {
        fill: #fcd434;
      }
    </style>
  </defs>
  <path class="cls-1" d="m981.3,513.2c-.7-16.1-4.1-32.1-7-48-2.9-16.2-6-32.3-10.1-48.3-2.4-9.5-7-18.4-10.3-27.7-3.2-8.9-5.1-18.4-9.2-26.7-9.6-19-19.3-38.1-30.9-56.1-12.5-19.4-26.9-37.6-40.9-55.9-1.9-2.4-6.1-3-9.1-4.5,0,3.7-.9,7.8.5,10.9,7.5,17.1,12.7,34.7,12.7,53.5,0,15,0,30,0,45s.4,4.5-.2,6.6c-4.8,15-9.5,30.1-14.8,44.9-9.6,26.6-24.9,49.7-45.3,69.1-9.7,9.2-20,18.2-31.2,25.2-17.3,10.7-35.1,21.6-54,29-27.1,10.5-55.6,17.7-83.3,26.7-42.5,14-74.4,41.3-97.3,79.4-6.3,10.6-10.9,22.3-15,30.7-12.4-18.6-25.2-38.9-39.2-58.4-18.1-25.1-43.8-40.3-72.1-50.9-17.7-6.6-36.6-10.6-54.8-16-31.3-9.4-61.1-22.1-88.6-40.1-21.5-14.1-39.1-32.3-53.4-53.1-9.5-13.7-16.1-29.4-22.4-44.9-7.6-18.4-12-37.9-12.6-57.9-.4-12.2-.9-24.4.2-36.6.9-10.9,4.1-21.6,5.9-32.4.4-2.3-.9-5-1.3-7.6-2.7.9-6.8.9-7.9,2.7-17.7,28.7-37,56.6-51.9,86.7-11.1,22.3-17.3,47.3-24.1,71.6-5.5,19.7-9.6,39.9-12.5,60.1-2.2,15.6-3.4,31.8-1.7,47.4,2.3,20.7-1.3,41.7,4.8,62.4,4.8,16.4,5.5,34.1,9.5,50.9,3.9,16.8,8.2,33.7,14.8,49.6,10.9,25.9,22.2,51.9,39.3,74.7,16.2,21.6,30.9,44.4,48.7,64.6,21,23.7,44.6,45.3,72.3,61.8,17.3,10.3,33.7,22.4,51.4,32,27.2,14.8,56.3,25.6,86.2,33.1,25.4,6.2,51.3,11.9,77.3,13.4,32.6,1.8,65.3-.5,98-1.6,8-.3,16.2-2,24-4.1,15.5-4.2,30.9-8.5,46.1-13.9,22-7.8,44.4-15.3,65.5-25.3,32-15.2,61.5-34.9,88.1-58.2,28-24.4,53.9-51.2,75.5-81.6,11.1-15.5,21-32.2,29.4-49.3,10.7-21.7,20.1-44.2,28.6-66.9,4.8-12.7,7.6-26.4,10.2-39.8,3.7-19.7,6.6-39.6,9.7-59.4.4-2.4.9-4.9.9-7.3.8-19.8,2.7-39.8,1.9-59.5Zm-227.9,104.6c-8.2,15-22.2,22.7-36.9,29.4-8.2,3.7-17,6.2-25.5,8.8-2.6.8-6.5,1.3-8.3,0-9.1-6.8-17.8-1.7-26.2.7-3.9,1.1-8.4,4.8-10,8.5-9.3,20.5-17.9,41.4-26.6,62.3-5.5,13.2-11.3,26.2-15.5,39.8-3,9.8-4.8,20.4-4.5,30.6.3,11.9,3.5,23.7,5.2,35.7,2.7,20.3-12.1,30.9-26.2,39-19.6,11.2-40.9,14.1-61.6,9.9-20.3-4.1-43.5-9.6-50.9-33.5-3.4-11-4.5-24.9-.9-35.6,6.4-19.5,4.1-36.4-3.9-54.2-9.1-20.4-17-41.4-25.5-62-4.7-11.2-9.1-22.7-15.2-33-6.8-11.4-19.8-14-32.3-8.7-2.7,1.1-6.2,1.4-9.1.7-22.6-5.8-43.9-13.4-60-32.3-14.8-17.3-19.7-36.7-17.8-60.4,10.8,4.1,20.6,8.3,30.7,11.7,12.9,4.5,26,8.4,39.1,12.3,35.2,10.2,69.4,21.4,94.4,51.2,13,15.4,20.9,32.9,27.8,50.9,8,20.6,13.4,42.2,19.8,63.3,4.3,14,8.4,28,13.1,41.7,1.3,3.7,4.9,6.5,7.5,9.7,2.3-3.5,5.5-6.8,6.9-10.7,5.1-15.2,9.3-30.7,14.3-46,6.2-19.1,13.4-37.9,19.4-57.1,7.3-24.2,20.3-44.5,38.4-62.1,17.8-17.3,39.7-26.6,62.8-34.3,28.1-9.2,56-19.5,84-29.1,2.3-.8,4.9-.4,7.7-.6,3.5,20.3-5.2,36.9-14.2,53.4Z"/>
  <path class="cls-1" d="m815.9,349.8c-11.6,22-27.7,40.7-46.3,57.7-19.8,18.3-41.9,31.3-66.7,41.1-17.9,7-36.1,12-54.4,17.3-30.5,8.7-60.8,19.6-87.3,38.1-6.8,4.7-14.1,8.7-20.5,13.8-4.8,3.9-8.3,4.1-13.1.2-18.7-14.8-39.3-26.9-61.6-35.9-20.3-8.2-41.2-14.7-62.6-19.8-26.9-6.4-51.8-18.7-75.8-32.8-20.2-11.8-36.5-27.6-50.8-45.1-11.5-14.1-20.9-30.1-29.1-46.2-13.8-27.1-17.5-56.7-17.4-86.8,0-8.4-.6-17.5,2.5-24.8,3.1-7.3,10.1-13.2,16.2-18.7,8.4-7.6,17.3-14.7,26.6-21.2,27.6-19.2,55.3-38.1,87.1-50,16.7-6.2,32.8-14.2,49.8-19.4,17.5-5.3,35.9-7.7,53.7-12.3,34-8.7,68.5-5.5,102.8-5.3,25.6,0,51.1,3.6,75.7,12.4,18.4,6.6,37.9,10.3,56.3,16.9,29,10.3,55.8,25.2,81.5,41.9,15.2,9.8,29.1,21.3,43.4,32.4,9.1,7,10,18,11.2,28,1,9,.2,18.1.2,27.3,2.7,32.6-6.6,62.7-21.3,91Z"/>
</svg>