<svg width="61" height="61" viewBox="0 0 61 61" fill="none" xmlns="http://www.w3.org/2000/svg">
<path d="M6.46389 12.0289C6.53163 12.266 6.4639 12.5031 6.43003 12.7402C5.85423 16.0256 6.09132 19.2432 7.58161 22.2916C9.30899 25.7802 11.9847 28.2527 15.6427 29.6075C17.8104 30.4204 20.0119 31.0978 22.2135 31.8091C25.0247 32.6897 27.0569 34.5187 28.5472 36.9912C29.0553 37.8041 29.3601 38.6847 29.9698 39.4976C30.3762 39.0234 30.6133 38.4815 30.9181 38.0073C31.6294 36.8557 32.3068 35.6364 33.2213 34.6541C33.9664 33.8751 34.8471 33.2655 35.7954 32.7235C37.0486 32.0461 38.3696 31.5381 39.6905 31.0978C41.9259 30.3188 44.1614 29.6075 46.2952 28.5575C49.987 26.7285 52.2563 23.748 53.3402 19.819C54.153 16.7707 54.0853 13.7563 53.0015 10.8096C52.9676 10.708 52.866 10.5386 53.0015 10.4709C53.1369 10.4031 53.2047 10.5386 53.3063 10.6402C56.9981 14.7046 59.2336 19.5142 60.2835 24.8657C60.5884 26.3898 60.69 27.9479 60.7916 29.5059C60.9609 32.6219 60.5545 35.6703 59.7416 38.6847C58.6916 42.4781 56.8965 45.899 54.4918 49.0151C51.4096 52.944 47.6838 56.0939 43.1452 58.2278C40.3679 59.5487 37.4212 60.3616 34.3729 60.768C32.3407 61.039 30.3423 61.039 28.3101 60.9374C24.8215 60.7342 21.4684 59.8535 18.2507 58.431C15.575 57.2455 13.1363 55.7552 10.9348 53.8585C8.08966 51.4537 5.71875 48.6764 3.85589 45.4248C2.12852 42.4104 1.0108 39.1927 0.435011 35.7719C0.19792 34.4509 0.130181 33.13 0.0624403 31.7752C-0.140781 28.0156 0.435012 24.3576 1.5866 20.8013C2.6027 17.7191 4.05911 14.874 6.12519 12.3337C6.2268 12.1644 6.26067 12.0289 6.46389 12.0289ZM30.2069 48.3377C30.173 48.3377 30.1053 48.3377 30.0714 48.3377C29.5295 47.1184 29.0891 45.899 28.615 44.6458C28.1069 43.2233 27.7682 41.733 27.2263 40.3105C26.1424 37.567 24.3473 35.5009 21.5022 34.4848C19.1991 33.6719 16.8959 32.9268 14.5589 32.1816C13.7798 31.9107 13.6782 31.9784 13.6782 32.859C13.7121 34.5864 14.4911 36.009 15.7782 37.0928C17.1669 38.2783 18.7926 38.6508 20.5877 38.5492C21.57 38.4815 21.9764 38.8202 22.349 39.7008C23.0264 41.2927 23.6361 42.9185 24.3473 44.5104C25.1263 46.2716 25.4312 48.0329 24.957 49.9296C24.5844 51.4199 25.1941 52.8424 26.5489 53.4859C28.8521 54.5698 31.1552 54.6375 33.4923 53.4859C34.4406 53.0118 35.2874 51.8602 35.0842 50.3021C35.0164 49.6925 34.8132 49.0828 34.7116 48.4732C34.61 47.9312 34.5761 47.3893 34.7793 46.8813C35.66 44.4087 36.6761 42.004 37.6583 39.5992C37.8954 39.0234 38.3357 38.5831 38.9792 38.5492C39.555 38.4815 40.1647 38.4476 40.7405 38.4137C44.2291 38.3799 46.3968 35.2638 46.2613 32.7235C46.2274 31.9107 46.1597 31.8429 45.3807 32.1139C43.2807 32.8252 41.2147 33.5026 39.1147 34.2477C35.9648 35.3654 33.831 37.4654 32.7132 40.6492C32.0697 42.4781 31.4939 44.341 30.9181 46.2039C30.7149 46.949 30.444 47.6264 30.2069 48.3377Z" fill="#FAD432"/>
<path d="M30.6133 0.0050995C35.7954 -0.0965109 40.6389 1.32603 45.2113 3.76468C46.8371 4.64531 48.3612 5.66141 49.7499 6.9146C50.3596 7.45653 50.7322 8.1678 50.766 8.98069C50.8338 11.3177 50.8338 13.6209 49.987 15.8563C49.1064 18.1595 47.65 19.9885 45.821 21.5465C43.5178 23.511 40.7405 24.4255 37.8954 25.2045C35.389 25.8819 33.0181 26.8641 30.9181 28.3883C30.0714 28.9979 29.8682 28.9641 29.0214 28.3544C26.8537 26.7625 24.3812 25.8141 21.8409 25.069C19.1991 24.29 16.6249 23.3416 14.4234 21.682C11.7138 19.6498 10.1219 16.9402 9.5122 13.6548C9.30898 12.5371 9.20737 11.3855 9.1735 10.2339C9.10576 9.01455 9.61381 8.10006 10.4944 7.38879C13.5766 4.84853 16.9636 2.74858 20.791 1.52926C23.0264 0.784113 25.3296 0.309929 27.7005 0.106708C28.6488 0.00509795 29.5972 0.0728398 30.6133 0.0050995Z" fill="#FAD432"/>
</svg>
