<svg width="13" height="13" viewBox="0 0 13 13" fill="none" xmlns="http://www.w3.org/2000/svg">
<path d="M5.57099 3.98929e-05V0.00148054C5.55793 0.00270842 5.54495 0.00463202 5.53209 0.00724314C5.52145 0.00870151 5.51087 0.0106242 5.5004 0.0130057C5.47594 0.0201457 5.45228 0.0298016 5.42981 0.0418187C5.40648 0.0519853 5.38428 0.0645378 5.36354 0.0792756C5.35405 0.0865117 5.34491 0.0942042 5.33616 0.102326C5.32853 0.111104 5.32132 0.120239 5.31455 0.129698C5.29815 0.14836 5.28367 0.168632 5.27134 0.190206C5.26555 0.20051 5.26026 0.211087 5.25549 0.2219C5.24898 0.234522 5.24321 0.24751 5.2382 0.260797C5.22759 0.295828 5.22224 0.332243 5.22235 0.368846C5.22162 0.394429 5.22355 0.420018 5.22812 0.4452L5.37362 1.12086C4.92649 0.946916 4.45358 0.846763 3.97043 0.845701C1.77987 0.845785 2.9652e-05 2.66463 0 4.88672C0.00109808 5.68507 0.232833 6.46575 0.669902 7.12981C0.696388 7.17058 0.730646 7.20574 0.770718 7.23327C0.81079 7.2608 0.855893 7.28017 0.903451 7.29027C0.951008 7.30037 1.00009 7.301 1.04789 7.29213C1.09569 7.28327 1.14128 7.26507 1.18205 7.23858C1.22282 7.2121 1.25798 7.17784 1.28551 7.13777C1.31304 7.09769 1.33241 7.05259 1.34251 7.00503C1.35261 6.95748 1.35324 6.90839 1.34437 6.86059C1.3355 6.81279 1.31731 6.7672 1.29082 6.72643C0.933487 6.18353 0.742836 5.54206 0.741934 4.88672C0.741959 3.05554 2.18637 1.58625 3.97043 1.58619C4.39399 1.58711 4.80948 1.67728 5.19786 1.84119L4.34644 2.28635C4.33501 2.29296 4.32395 2.30017 4.3133 2.30796C4.30381 2.3152 4.29468 2.32289 4.28593 2.33101C4.27647 2.33778 4.26734 2.34499 4.25856 2.35262C4.24896 2.36126 4.23983 2.3704 4.23119 2.37999C4.2234 2.39064 4.21618 2.4017 4.20958 2.41313C4.20375 2.4239 4.19846 2.43496 4.19373 2.44626C4.18745 2.45654 4.18168 2.46712 4.17644 2.47796C4.17256 2.48884 4.1692 2.49989 4.16636 2.51109C4.16375 2.52395 4.16182 2.53693 4.16059 2.54999C4.15803 2.56237 4.15611 2.57487 4.15483 2.58745C4.15434 2.59849 4.15434 2.60954 4.15483 2.62058C4.1542 2.63306 4.1542 2.64556 4.15483 2.65804C4.15606 2.6711 4.15798 2.68408 4.16059 2.69694C4.16395 2.70767 4.1678 2.71825 4.17212 2.72863C4.17666 2.74189 4.18195 2.75487 4.18797 2.76753C4.1927 2.77883 4.19798 2.78989 4.20381 2.80066C4.20917 2.81003 4.21494 2.81917 4.2211 2.82803C4.22962 2.83911 4.23876 2.84969 4.24847 2.85973C4.25534 2.86772 4.26256 2.87541 4.27008 2.88278C4.28012 2.8925 4.2907 2.90163 4.30178 2.91015C4.33048 2.93089 4.36202 2.94739 4.39542 2.95913C4.40769 2.96364 4.4202 2.96748 4.43288 2.97066C4.46859 2.97996 4.5055 2.98384 4.54237 2.98218C4.55494 2.98091 4.56745 2.97898 4.57982 2.97642C4.59095 2.975 4.60201 2.97308 4.61296 2.97066C4.63737 2.96398 4.66102 2.95481 4.68355 2.94329C4.68547 2.9433 4.68739 2.9433 4.68931 2.94329L6.07666 2.21288C6.09823 2.20055 6.1185 2.18607 6.13717 2.16966C6.14255 2.16596 6.14783 2.16211 6.15301 2.15813C6.15886 2.15493 6.16463 2.15157 6.1703 2.14805C6.17032 2.14613 6.17032 2.14421 6.1703 2.14229C6.17783 2.13491 6.18504 2.12722 6.19191 2.11923C6.19385 2.11734 6.19577 2.11541 6.19767 2.11347C6.20322 2.10646 6.2085 2.09926 6.21352 2.09186C6.21546 2.08996 6.21738 2.08804 6.21928 2.0861C6.22079 2.08228 6.22223 2.07844 6.2236 2.07457C6.22759 2.0694 6.23143 2.06411 6.23513 2.05873C6.23514 2.05681 6.23514 2.05489 6.23513 2.05296C6.24084 2.0436 6.24613 2.03399 6.25098 2.02415C6.25099 2.02271 6.25099 2.02127 6.25098 2.01983C6.25522 2.01039 6.25907 2.00078 6.2625 1.99102C6.26255 1.98766 6.26255 1.98429 6.2625 1.98093C6.26626 1.97147 6.26962 1.96186 6.27259 1.95212C6.2726 1.9502 6.2726 1.94828 6.27259 1.94636C6.27485 1.93731 6.27677 1.92818 6.27835 1.91898C6.27841 1.91514 6.27841 1.9113 6.27835 1.90746C6.28062 1.89841 6.28254 1.88928 6.28411 1.88009C6.28484 1.8545 6.28291 1.82892 6.27835 1.80373C6.27645 1.80179 6.27453 1.79987 6.27259 1.79797L6.2625 1.75331C6.25977 1.72586 6.25398 1.69879 6.24521 1.67263L5.95132 0.283848C5.94844 0.273137 5.94507 0.262561 5.94124 0.252153C5.92988 0.217243 5.91337 0.184224 5.89225 0.154189C5.85612 0.102984 5.80753 0.0618313 5.75107 0.0346155C5.74022 0.0302504 5.72916 0.0264043 5.71794 0.0230903C5.69317 0.0146353 5.66757 0.00884006 5.64158 0.00580249C5.61829 0.00162163 5.59465 -0.000308131 5.57099 3.98929e-05ZM8.94643 0.775109C7.46218 0.775109 6.27835 1.99433 6.27835 3.4648C6.27835 4.9353 7.46218 6.15449 8.94643 6.15449C10.4133 6.15449 11.6145 4.93928 11.6145 3.4648C11.6145 1.99032 10.4133 0.775109 8.94643 0.775109ZM8.94067 0.95519C8.96598 0.954191 8.99122 0.958415 9.01482 0.967599C9.03843 0.976783 9.05988 0.99073 9.07786 1.00857C9.09584 1.02641 9.10995 1.04777 9.11931 1.0713C9.12867 1.09483 9.13308 1.12004 9.13227 1.14536V1.77204C9.13247 1.79647 9.12782 1.8207 9.1186 1.84333C9.10939 1.86596 9.09578 1.88654 9.07857 1.90388C9.06136 1.92123 9.04089 1.935 9.01833 1.94439C8.99578 1.95379 8.97159 1.95862 8.94715 1.95862C8.92272 1.95862 8.89853 1.95379 8.87597 1.94439C8.85341 1.935 8.83294 1.92123 8.81573 1.90388C8.79852 1.88654 8.78492 1.86596 8.7757 1.84333C8.76648 1.8207 8.76184 1.79647 8.76203 1.77204V1.14536C8.76126 1.12114 8.76528 1.09701 8.77384 1.07434C8.7824 1.05167 8.79535 1.03092 8.81194 1.01325C8.82853 0.995594 8.84844 0.981377 8.87053 0.971413C8.89262 0.96145 8.91645 0.955938 8.94067 0.95519ZM8.94355 2.18983C8.96825 2.18925 8.99281 2.19364 9.01578 2.20274C9.03875 2.21184 9.05966 2.22546 9.07726 2.24279C9.09486 2.26013 9.1088 2.28082 9.11825 2.30365C9.1277 2.32647 9.13247 2.35097 9.13227 2.37567V3.36251L9.93184 4.16784C9.96187 4.20381 9.97712 4.24985 9.9745 4.29664C9.97188 4.34343 9.95159 4.38747 9.91773 4.41987C9.88387 4.45227 9.83896 4.47059 9.7921 4.47114C9.74524 4.47169 9.69993 4.45443 9.66532 4.42283L8.83118 3.57717C8.82612 3.57264 8.82131 3.56783 8.81677 3.56277C8.81276 3.5591 8.80892 3.55525 8.80525 3.55124C8.80222 3.54751 8.79933 3.54367 8.7966 3.53971C8.79563 3.53876 8.79467 3.5378 8.79372 3.53683C8.79118 3.53308 8.78878 3.52924 8.78652 3.52531C8.78554 3.52388 8.78458 3.52244 8.78364 3.52099C8.78155 3.51674 8.77963 3.51241 8.77788 3.50802C8.77739 3.50706 8.77691 3.5061 8.77643 3.50514C8.77431 3.50042 8.77239 3.49561 8.77067 3.49073C8.77018 3.48978 8.7697 3.48882 8.76923 3.48785C8.76873 3.48642 8.76825 3.48498 8.76779 3.48353C8.75949 3.45649 8.75751 3.4279 8.76203 3.39997V2.37567C8.76172 2.33029 8.77816 2.28639 8.80819 2.25236C8.83823 2.21834 8.87975 2.19659 8.92482 2.19127C8.93104 2.19047 8.93729 2.18999 8.94355 2.18983ZM6.62266 3.2804C6.6241 3.28038 6.62555 3.28038 6.62699 3.2804C6.63418 3.27998 6.6414 3.27998 6.6486 3.2804H7.26952C7.31846 3.28064 7.36531 3.30025 7.39984 3.33494C7.43436 3.36963 7.45374 3.41658 7.45374 3.46552C7.45374 3.51446 7.43436 3.56141 7.39984 3.59611C7.36531 3.6308 7.31846 3.65041 7.26952 3.65064H6.6486C6.5995 3.65408 6.55105 3.63788 6.5139 3.60559C6.47675 3.57331 6.45395 3.52758 6.45051 3.47849C6.44707 3.42939 6.46327 3.38094 6.49556 3.34379C6.52784 3.30664 6.57357 3.28384 6.62266 3.2804ZM10.6046 3.2804C10.6056 3.28039 10.6065 3.28039 10.6075 3.2804C10.6128 3.28017 10.6181 3.28017 10.6233 3.2804H11.2227C11.2716 3.28064 11.3185 3.30025 11.353 3.33494C11.3875 3.36963 11.4069 3.41658 11.4069 3.46552C11.4069 3.51446 11.3875 3.56141 11.353 3.59611C11.3185 3.6308 11.2716 3.65041 11.2227 3.65064H10.6233C10.5742 3.65313 10.5262 3.63601 10.4897 3.60304C10.4532 3.57008 10.4313 3.52398 10.4289 3.47489C10.4264 3.42579 10.4435 3.37771 10.4765 3.34124C10.5094 3.30477 10.5555 3.28288 10.6046 3.2804ZM8.94067 4.9674C8.9661 4.96639 8.99147 4.97065 9.01517 4.97992C9.03888 4.98919 9.06041 5.00327 9.0784 5.02127C9.0964 5.03927 9.11048 5.0608 9.11975 5.0845C9.12902 5.1082 9.13329 5.13357 9.13227 5.159V5.78425C9.13247 5.80868 9.12782 5.83291 9.1186 5.85554C9.10939 5.87817 9.09578 5.89875 9.07857 5.91609C9.06136 5.93344 9.04089 5.9472 9.01833 5.9566C8.99578 5.96599 8.97159 5.97083 8.94715 5.97083C8.92272 5.97083 8.89853 5.96599 8.87597 5.9566C8.85341 5.9472 8.83294 5.93344 8.81573 5.91609C8.79852 5.89875 8.78492 5.87817 8.7757 5.85554C8.76648 5.83291 8.76184 5.80868 8.76203 5.78425V5.159C8.76107 5.13467 8.76494 5.11038 8.77341 5.08755C8.78189 5.06471 8.79481 5.04379 8.81142 5.02597C8.82803 5.00816 8.848 4.99381 8.87018 4.98376C8.89237 4.9737 8.91632 4.96814 8.94067 4.9674ZM11.5742 5.18494C11.5622 5.18483 11.5501 5.18531 11.5382 5.18638C11.4746 5.19131 11.4135 5.21261 11.3606 5.24821C11.3078 5.2838 11.2651 5.33248 11.2366 5.3895C11.2082 5.44651 11.195 5.50992 11.1984 5.57355C11.2017 5.63717 11.2215 5.69884 11.2558 5.75255C11.5881 6.28327 11.7672 6.90234 11.7672 7.53319C11.7672 9.36438 10.3228 10.8323 8.53873 10.8323C8.12998 10.8313 7.72745 10.7476 7.35019 10.5946L8.09213 10.2042C8.11501 10.1934 8.13673 10.1804 8.15696 10.1653C8.21303 10.1168 8.25319 10.0525 8.27221 9.98086C8.28296 9.94536 8.28831 9.90845 8.28805 9.87137C8.28678 9.85879 8.28485 9.84629 8.28229 9.83391C8.27512 9.7722 8.25247 9.7133 8.21646 9.66268C8.18044 9.61206 8.13223 9.57135 8.07628 9.54434C8.01986 9.51883 7.95793 9.50793 7.8962 9.51265V9.50977C7.84711 9.51271 7.79911 9.52545 7.75501 9.54722L6.3547 10.282C6.34729 10.2874 6.34008 10.2932 6.33309 10.2992C6.33117 10.2992 6.32925 10.2992 6.32733 10.2992C6.3164 10.3059 6.30582 10.3131 6.29564 10.3209C6.28811 10.3282 6.2809 10.3359 6.27403 10.3439C6.27209 10.3458 6.27016 10.3477 6.26826 10.3497C6.26077 10.3566 6.25356 10.3638 6.24665 10.3713C6.24664 10.3732 6.24664 10.3751 6.24665 10.377C6.23913 10.3844 6.23192 10.3921 6.22505 10.4001C6.22504 10.4015 6.22504 10.403 6.22505 10.4044C6.21885 10.4137 6.21308 10.4234 6.20776 10.4332C6.20416 10.4403 6.2008 10.4475 6.19767 10.4548C6.19568 10.4586 6.19376 10.4625 6.19191 10.4664C6.1919 10.4683 6.1919 10.4702 6.19191 10.4721C6.18594 10.4843 6.18065 10.4968 6.17606 10.5096C6.16826 10.5311 6.16247 10.5533 6.15878 10.5758C6.15832 10.5864 6.15832 10.597 6.15878 10.6075C6.15804 10.6331 6.15997 10.6587 6.16454 10.6839C6.16452 10.6858 6.16452 10.6877 6.16454 10.6897L6.49157 12.2038C6.49445 12.2145 6.49781 12.2251 6.50165 12.2355C6.50478 12.2486 6.50862 12.2616 6.51318 12.2744C6.5179 12.2857 6.52319 12.2967 6.52902 12.3075C6.54143 12.3286 6.55591 12.3484 6.57224 12.3666C6.59816 12.3924 6.62777 12.4143 6.66012 12.4314C6.67074 12.4397 6.6818 12.4474 6.69326 12.4545C6.73766 12.4747 6.78565 12.486 6.83444 12.4876C6.84692 12.4882 6.85942 12.4882 6.8719 12.4876C6.88302 12.4862 6.89408 12.4842 6.90503 12.4818C6.91761 12.4805 6.93011 12.4786 6.94249 12.4761C6.96745 12.469 6.99159 12.4594 7.01452 12.4472C7.02533 12.4425 7.03591 12.4372 7.04622 12.4314C7.10919 12.3922 7.15889 12.335 7.18884 12.2672C7.19268 12.2568 7.19604 12.2462 7.19892 12.2355C7.20348 12.2227 7.20732 12.2097 7.21045 12.1966C7.21608 12.1734 7.21946 12.1498 7.22053 12.126C7.21926 12.1134 7.21733 12.1009 7.21477 12.0885C7.21424 12.0736 7.2128 12.0587 7.21045 12.0439L7.04189 11.2645C7.51365 11.4622 8.01872 11.5715 8.53296 11.5728C8.53489 11.5728 8.53681 11.5728 8.53873 11.5728C10.7293 11.5727 12.5019 9.75529 12.502 7.53319C12.5019 6.76445 12.2874 6.00962 11.881 5.36069C11.8487 5.30804 11.8037 5.26435 11.75 5.23364C11.6964 5.20293 11.636 5.18618 11.5742 5.18494ZM3.27315 6.67169C1.7382 6.67169 0.485499 7.92583 0.485499 9.46078C0.485499 10.9957 1.7382 12.2427 3.27315 12.2427C4.8081 12.2427 6.06081 10.9957 6.06081 9.46078C6.06081 7.92583 4.8081 6.67169 3.27315 6.67169ZM3.19104 7.62107H3.37544V8.1325C3.48019 8.13436 3.58678 8.15017 3.69671 8.17861C3.80664 8.20648 3.89864 8.23852 3.97331 8.27513V8.64682H3.9517C3.87392 8.58864 3.79327 8.53834 3.70823 8.49411C3.62423 8.44857 3.51337 8.41901 3.37544 8.40767V9.22596C3.40657 9.23153 3.44001 9.24032 3.47629 9.25333C3.5126 9.26262 3.54442 9.27039 3.57137 9.27782C3.7259 9.31834 3.84465 9.38821 3.92865 9.48671C4.01316 9.5848 4.05635 9.71955 4.05687 9.88866V9.8901V9.89154C4.05622 10.0861 3.99298 10.2489 3.86814 10.3785C3.74266 10.5075 3.57871 10.5836 3.37544 10.6075V11.2947H3.19104V10.6176C3.05415 10.6164 2.92525 10.6004 2.80494 10.5701C2.68465 10.5385 2.58048 10.4983 2.49232 10.4491V10.0731H2.51825C2.53799 10.0916 2.57263 10.1176 2.62342 10.1509C2.67423 10.1838 2.72409 10.2116 2.77181 10.233C2.82574 10.2569 2.88754 10.2791 2.95909 10.3007C3.03169 10.3209 3.10911 10.333 3.19104 10.3367V9.51553C3.14954 9.50624 3.11103 9.49638 3.07579 9.48671C3.04054 9.47742 3.00791 9.46743 2.97782 9.45646C2.80878 9.40461 2.68841 9.32678 2.61478 9.22308C2.54115 9.11807 2.50385 8.98989 2.50385 8.83698C2.50385 8.64988 2.56363 8.49197 2.68393 8.36301C2.80526 8.23403 2.97429 8.1582 3.19104 8.13683V7.62107ZM3.19104 8.41055C3.08007 8.41984 2.98726 8.45624 2.91155 8.52148C2.83584 8.58467 2.79774 8.67426 2.79774 8.788C2.79774 8.90304 2.82529 8.98914 2.8813 9.04732C2.9373 9.10549 3.04066 9.15361 3.19104 9.19282V8.41055ZM3.37544 9.54866V10.3338C3.49989 10.3189 3.59432 10.2794 3.66069 10.2171C3.7281 10.155 3.76298 10.0629 3.76298 9.93908C3.76298 9.82032 3.73196 9.73278 3.67077 9.67832C3.61062 9.62275 3.51233 9.58026 3.37544 9.54866Z" fill="#FCD434"/>
</svg>
