<svg width="12" height="12" viewBox="0 0 12 12" fill="none" xmlns="http://www.w3.org/2000/svg">
<path d="M10.1263 3.54805C10.7756 3.75314 11.2874 4.0061 11.6109 4.28999L11.2811 4.6658C11.4731 4.83423 11.5 4.94798 11.5 5C11.5 5.05202 11.4731 5.16577 11.2811 5.3342L11.6109 5.71001C11.2874 5.9939 10.7756 6.24686 10.1263 6.45195L9.97573 5.97517C9.52872 6.11637 9.00487 6.23569 8.42232 6.32472L8.49785 6.81898C7.97924 6.89824 7.42088 6.95358 6.83547 6.98077L6.81228 6.4813C6.54701 6.49362 6.27582 6.5 6 6.5C5.72418 6.5 5.45299 6.49362 5.18772 6.4813L5.16453 6.98077C4.57912 6.95358 4.02076 6.89824 3.50215 6.81898L3.57768 6.32472C2.99513 6.23569 2.47128 6.11637 2.02427 5.97517L1.87366 6.45195C1.22438 6.24686 0.712566 5.9939 0.389081 5.71001L0.718882 5.3342C0.526948 5.16577 0.5 5.05202 0.5 5C0.5 4.94798 0.526948 4.83423 0.718882 4.6658L0.389081 4.28999C0.712566 4.0061 1.22438 3.75314 1.87366 3.54805L2.02427 4.02483C2.47128 3.88363 2.99513 3.76431 3.57768 3.67528L3.50215 3.18102C4.02076 3.10176 4.57912 3.04642 5.16453 3.01923L5.18772 3.5187C5.45299 3.50638 5.72418 3.5 6 3.5C6.27582 3.5 6.54701 3.50638 6.81228 3.5187L6.83547 3.01923C7.42088 3.04642 7.97924 3.10176 8.49785 3.18102L8.42232 3.67528C9.00487 3.76431 9.52872 3.88363 9.97573 4.02483L10.1263 3.54805Z" stroke="#C7C7C7" stroke-dasharray="2 2"/>
<path d="M6.73047 1.89062V9H5.39258V1.89062H6.73047ZM8.9375 1.89062V2.9502H3.20996V1.89062H8.9375Z" fill="white"/>
</svg>
