<svg width="27" height="27" viewBox="0 0 27 27" fill="none" xmlns="http://www.w3.org/2000/svg">
<g clip-path="url(#clip0_60_1495)">
<path fill-rule="evenodd" clip-rule="evenodd" d="M25.2107 6.32126C25.1984 6.82935 24.7775 7.2319 24.2694 7.22085C23.7613 7.20858 23.3587 6.78763 23.3698 6.27953L23.4201 4.06308L21.2049 4.01276C20.6968 4.00049 20.2942 3.57953 20.3053 3.07144C20.3175 2.56335 20.7385 2.16081 21.2466 2.17185L24.3835 2.24426C24.8916 2.25531 25.2941 2.67626 25.2819 3.18435L25.2107 6.32126Z" fill="#D6DBDE"/>
<path d="M5.61723 9.93579V24.8362C5.61723 25.6928 4.92382 26.3862 4.06718 26.3862H1.55005C0.693409 26.3862 0 25.6928 0 24.8362V9.93579C0 9.08038 0.693409 8.38574 1.55005 8.38574H4.06718C4.92382 8.38574 5.61723 9.08038 5.61723 9.93579ZM1.84091 10.2267V24.5453H3.77632V10.2267H1.84091Z" fill="#D6DBDE"/>
<path d="M5.61723 9.93579V24.8362C5.61723 25.6928 4.92382 26.3862 4.06718 26.3862H1.55005C0.693409 26.3862 0 25.6928 0 24.8362V9.93579C0 9.08038 0.693409 8.38574 1.55005 8.38574H4.06718C4.92382 8.38574 5.61723 9.08038 5.61723 9.93579ZM1.84091 10.2267V24.5453H3.77632V10.2267H1.84091Z" stroke="black"/>
<path d="M19.4633 17.4883V24.836C19.4633 25.2471 19.3001 25.641 19.0092 25.9319C18.7183 26.2228 18.3244 26.386 17.9133 26.386H15.3961C14.985 26.386 14.591 26.2228 14.3002 25.9319C14.0093 25.641 13.8461 25.2471 13.8461 24.836V17.4883C13.8461 17.0771 14.0093 16.6832 14.3002 16.3923C14.591 16.1015 14.985 15.9382 15.3961 15.9382H17.9133C18.3244 15.9382 18.7183 16.1015 19.0092 16.3923C19.3001 16.6832 19.4633 17.0771 19.4633 17.4883ZM15.687 17.7791V24.5451H17.6224V17.7791H15.687Z" fill="#D6DBDE"/>
<path d="M19.4633 17.4883V24.836C19.4633 25.2471 19.3001 25.641 19.0092 25.9319C18.7183 26.2228 18.3244 26.386 17.9133 26.386H15.3961C14.985 26.386 14.591 26.2228 14.3002 25.9319C14.0093 25.641 13.8461 25.2471 13.8461 24.836V17.4883C13.8461 17.0771 14.0093 16.6832 14.3002 16.3923C14.591 16.1015 14.985 15.9382 15.3961 15.9382H17.9133C18.3244 15.9382 18.7183 16.1015 19.0092 16.3923C19.3001 16.6832 19.4633 17.0771 19.4633 17.4883ZM15.687 17.7791V24.5451H17.6224V17.7791H15.687Z" stroke="black"/>
<path d="M12.5403 13.7119V24.8359C12.5403 25.6926 11.8469 26.386 10.9903 26.386H8.47314C7.6165 26.386 6.9231 25.6926 6.9231 24.8359V13.7119C6.9231 13.3008 7.08632 12.9069 7.37719 12.616C7.66805 12.3251 8.062 12.1619 8.47314 12.1619H10.9903C11.8469 12.1619 12.5403 12.8565 12.5403 13.7119ZM8.764 14.0028V24.5451H10.6994V14.0028H8.764Z" fill="#D6DBDE"/>
<path d="M12.5403 13.7119V24.8359C12.5403 25.6926 11.8469 26.386 10.9903 26.386H8.47314C7.6165 26.386 6.9231 25.6926 6.9231 24.8359V13.7119C6.9231 13.3008 7.08632 12.9069 7.37719 12.616C7.66805 12.3251 8.062 12.1619 8.47314 12.1619H10.9903C11.8469 12.1619 12.5403 12.8565 12.5403 13.7119ZM8.764 14.0028V24.5451H10.6994V14.0028H8.764Z" stroke="black"/>
<path d="M26.3864 13.7119V24.8359C26.3864 25.6926 25.693 26.386 24.8363 26.386H22.3192C21.4626 26.386 20.7692 25.6926 20.7692 24.8359V13.7119C20.7692 13.3008 20.9324 12.9069 21.2233 12.616C21.5141 12.3251 21.9081 12.1619 22.3192 12.1619H24.8363C25.693 12.1619 26.3864 12.8565 26.3864 13.7119ZM22.6101 14.0028V24.5451H24.5455V14.0028H22.6101Z" fill="#D6DBDE"/>
<path d="M26.3864 13.7119V24.8359C26.3864 25.6926 25.693 26.386 24.8363 26.386H22.3192C21.4626 26.386 20.7692 25.6926 20.7692 24.8359V13.7119C20.7692 13.3008 20.9324 12.9069 21.2233 12.616C21.5141 12.3251 21.9081 12.1619 22.3192 12.1619H24.8363C25.693 12.1619 26.3864 12.8565 26.3864 13.7119ZM22.6101 14.0028V24.5451H24.5455V14.0028H22.6101Z" stroke="black"/>
<path fill-rule="evenodd" clip-rule="evenodd" d="M1.47272 1.65646C1.06526 1.3521 0.983034 0.774051 1.28863 0.367823C1.59299 -0.0384037 2.16981 -0.120631 2.57726 0.183733L9.88322 5.66351H13.3527C13.6362 5.66351 13.9025 5.7936 14.0768 6.01574L16.8836 9.58833L23.3881 2.80028C23.7391 2.43333 24.3221 2.42105 24.689 2.77328C25.056 3.12428 25.0683 3.70724 24.7173 4.07419L17.4788 11.6268C17.2947 11.8195 17.0358 11.9226 16.7694 11.9091C16.5031 11.8968 16.2552 11.768 16.0908 11.5581L12.906 7.50442H9.5764C9.37758 7.50442 9.18367 7.4406 9.02413 7.32033L1.47272 1.65646Z" fill="#D6DBDE"/>
<path d="M25.5 30.6027C25.6373 29.5581 26.2429 28.439 27.45 27.5423C28.3059 27.8406 29.1769 27.8289 30.0202 27.539C30.8415 28.1131 31.3852 28.8658 31.7341 29.7678C31.2238 30.5102 30.8251 31.2977 30.4689 32.0507C29.1277 32.2766 27.8104 32.2816 26.5145 31.9839C26.0315 31.8726 25.8263 31.7257 25.7187 31.5842C25.608 31.4388 25.5014 31.1692 25.5 30.6027ZM31.8326 29.6266C31.8326 29.6266 31.8321 29.6275 31.8309 29.6295C31.8319 29.6276 31.8326 29.6266 31.8326 29.6266ZM29.9233 27.4741C29.9233 27.4741 29.9237 27.4743 29.9247 27.4748L29.9233 27.4741Z" stroke="#D6DBDE" stroke-width="1.57143"/>
<path d="M29.876 23.1084C29.6023 22.925 29.1785 22.7857 28.6648 22.7857C28.1292 22.7857 27.693 22.9258 27.4135 23.1095C27.1316 23.2949 27.0727 23.4712 27.0715 23.5702C27.0704 23.6573 27.1215 23.8338 27.4085 24.0261C27.6898 24.2147 28.1248 24.3571 28.6429 24.3571C29.161 24.3571 29.596 24.2147 29.8773 24.0261C30.1643 23.8338 30.2154 23.6574 30.2143 23.5703C30.2143 23.5703 30.2143 23.5702 30.2143 23.5702M29.876 23.1084L31 23.5603M29.876 23.1084C30.1532 23.2942 30.213 23.4715 30.2143 23.5702M29.876 23.1084L30.2143 23.5702M30.2143 23.5702L31 23.5603M31 23.5603C30.989 22.6951 29.9585 22 28.6648 22C27.3383 22 26.2968 22.6877 26.2859 23.5603C26.2749 24.4329 27.3383 25.1429 28.6429 25.1429C29.9475 25.1429 31.0109 24.4329 31 23.5603Z" stroke="#D6DBDE" stroke-width="1.57143"/>
</g>
<defs>
<clipPath id="clip0_60_1495">
<rect width="27" height="27" fill="white"/>
</clipPath>
</defs>
</svg>
