<svg width="14" height="12" viewBox="0 0 14 12" fill="none" xmlns="http://www.w3.org/2000/svg">
<path d="M1.20214 5.84635L1.94962 10.3304V11.9791H11.4219V10.3306L12.1694 5.84663C12.809 5.89705 13.3721 5.3797 13.3721 4.73586C13.3721 4.12128 12.8723 3.62148 12.2577 3.62148C11.6431 3.62148 11.1433 4.12128 11.1433 4.73586C11.1433 4.96459 11.2141 5.18468 11.3417 5.36855L9.04854 6.82812L7.16411 2.11705C7.54272 1.93652 7.80042 1.55095 7.80042 1.11439C7.80042 0.499802 7.30062 0 6.68604 0C6.07145 0 5.57165 0.499802 5.57165 1.11439C5.57165 1.55095 5.82907 1.9368 6.20797 2.11705L4.32354 6.82812L2.03041 5.36883C2.15801 5.18496 2.22877 4.96487 2.22877 4.73614C2.22877 4.12156 1.72897 3.62175 1.11439 3.62175C0.499802 3.62175 4.15668e-07 4.12156 4.15668e-07 4.73614C-0.000556777 5.37998 0.559144 5.89761 1.20214 5.84635ZM2.50681 11.4219V10.5861H10.8675L10.8647 11.4219H2.50681ZM12.2577 4.17839C12.565 4.17839 12.8149 4.42829 12.8149 4.73558C12.8149 5.04288 12.565 5.29278 12.2577 5.29278C12.1866 5.29278 12.1162 5.27885 12.0482 5.25099L11.9919 5.22814L11.9395 5.19137C11.7899 5.08662 11.7005 4.91611 11.7005 4.73558C11.7005 4.42829 11.9504 4.17839 12.2577 4.17839ZM6.12857 1.11383C6.12857 0.806537 6.37847 0.556636 6.68576 0.556636C6.99305 0.556636 7.24295 0.806537 7.24295 1.11383C7.24295 1.39075 7.034 1.62672 6.75708 1.66266L6.68576 1.67186L6.61444 1.66266C6.33751 1.62672 6.12857 1.39075 6.12857 1.11383ZM4.59071 7.65834L6.68576 2.42128L8.7808 7.65834L11.6016 5.86334L10.9073 10.0289H2.46056L1.76992 5.86362L4.59071 7.65834ZM1.11383 4.17839C1.42112 4.17839 1.67102 4.42829 1.67102 4.73558C1.67102 4.91611 1.58159 5.08662 1.43199 5.19137L1.37961 5.22814L1.32333 5.25099C1.25536 5.27885 1.18459 5.29278 1.11383 5.29278C0.806537 5.29278 0.556636 5.04288 0.556636 4.73558C0.556636 4.42829 0.806537 4.17839 1.11383 4.17839Z" fill="#FAD432"/>
</svg>
